<svg id="Layer_1" data-name="Layer 1" xmlns="http://www.w3.org/2000/svg" viewBox="0 0 1366 768"><defs><style>.cls-1{fill:#fff;}.cls-2{fill:red;}</style></defs><title>eccc_logorrefArtboard 1</title><path class="cls-1" d="M232.68,330.59V211.68H172.89V330.59Zm-76.92-76.25c-5.59.58-13.2,5.37-15.91-4.83l-12.24,11.31-2.44-1.12,4.41-25.35L120.14,238l-9.41-16.74c-3.4,5.93-6.49,11.32-9.7,16.94l-9.38-4.49c1.68,9.47,3.17,17.8,4.65,26.14l-2.36,1.06L81.63,249.48C79,259.15,71.36,254.82,65.78,255c1,6.32,1.78,11.88,2.61,17.45,2.88,10.63,19.89,12.3,17.28,28.46l23.61-3.93v23.9l3,0v-24l24.46,3.86c-4.29-9.21,1.52-13,7.16-17.21,4.19-3.16,7.74-7.17,11.58-10.79l-2-.52C154.2,266.59,154.92,261,155.76,254.34ZM862,500.43l2.87-.66c0-8.59.59-17.24-.31-25.73-.33-3.18-3.55-6.87-6.46-8.79-6.93-4.56-12.44-.18-17.36,4.55-5.7-6.74-9.53-7.61-15.93-4.72-2.6,1.18-5.73,1.19-9.07,1.82V500l2.45.31a37.51,37.51,0,0,0,1.2-6.13c.22-5.84-.18-11.72.33-17.52s4.19-9,10-9.1c6.64-.1,7.28,4.5,7.16,9.71-.14,6.4-.15,12.81.08,19.21.05,1.35,1.38,2.66,2.12,4l2.42-.59c0-7.61-.45-15.26.14-22.83.5-6.39,4.48-9.72,11.27-9.47,6.5.23,7.61,4.11,7.43,9.51-.2,6.12-.15,12.25.06,18.37C860.42,497.15,861.4,498.78,862,500.43ZM769.38,298.21c-5.83-5-11.3-5.61-17.51-.4-8,6.74-10.08,18.15-3.57,26.85,2.43,3.24,7.54,5.64,11.68,6.08s8.43-2.1,12.63-3.33c.48,10.19-2.23,15.84-8.86,15.31-5.82-.46-11.45-3.44-17.35-5.37,4,9.84,12.26,9.95,20.25,8.54,7.23-1.27,9.94-7.58,10.27-14.26.53-10.53.45-21.1.41-31.66,0-1.25-1.28-3.53-2-3.56C773.59,296.35,771.83,297.38,769.38,298.21ZM641.57,391.6v37.15c2.3-1.4,3.17-3,3.24-4.66.24-6.13-.21-12.31.47-18.37.33-3,1.84-7.09,4.12-8.36,2.72-1.52,7.22-1.51,10.2-.31,1.73.7,2.65,5,2.77,7.76.36,8,.13,16,.13,24.05l3.4.22c.44-1.78,1.2-3.55,1.25-5.34.18-6.13,0-12.27.17-18.4.19-6.88,4-9.78,10.76-9.71s8.28,3.73,8,9.74c-.39,7.53-.1,15.1-.1,22.65l3,.46c.57-1.64,1.56-3.26,1.63-4.92.21-5,0-10,.08-15.05.09-6.29-.24-12.21-7-15.54-7.2-3.55-12.22-.15-16.88,4.77-9.73-8.25-11.61-8.28-22.06-.42C644,395.92,643.2,394.54,641.57,391.6ZM507.23,504c-.28,7.74,3.42,10.37,8.69,11.17,11.62,1.77,19.08-1.13,19.85-9.66,1.2-13.28.32-26.74.32-38.83-3.29-.35-6.2.07-8.34-1-9.71-4.88-21.06.62-22.5,11.55-1,7.6-.63,15.06,6.4,20.3,6.86,5.1,13.41,2.71,21-.35-1.14,5-2.18,10.79-5.62,13.29C519.62,515.87,513.37,510.48,507.23,504ZM346.08,213.14H375.3l-.2-1.93h-34V259c14.65,2.67,31.12,1.59,35.4-3.25H346.44V237l26.88-1.26-.23-3.53h-27Zm237.64,46.35,3.4.14c.21-2.81.47-5.63.61-8.45.28-5.83.15-11.71.84-17.48.71-5.95,5.31-7.22,10.47-7.1s7.33,3.33,7.4,8.15c.09,6.69-.05,13.38.15,20.07.06,1.72,1,3.41,1.6,5.11l2-.43c0-9.86,1-19.86-.35-29.52-.94-6.64-7.4-8.62-13.83-6.84-3.33.92-6.35,3-9.51,4.49.08-.82.15-1.64.23-2.46-5-.47-10-1.33-15.06-1.27-3.23,0-6.44,1.44-10.48,2.44-2.2,12.82-1.07,29.47,4,33.65,0-8.15,0-15.19,0-22.23,0-6.65,3.39-10.59,9.87-10.95,7.19-.41,8.57,4.76,8.6,10.57C583.75,244.75,583.72,252.12,583.72,259.49ZM608,470c-9.21-8.4-11.68-8.42-21.86-.68l-3.23-5.78v36.34a5.11,5.11,0,0,0,2.42-4.19c.54-6.86.53-13.8,1.6-20.57.87-5.44,4.54-8.95,10.54-8.27,6.41.74,6.52,5.62,6.44,10.6-.13,7.53,0,15.06,0,22.59l3.09.41c.55-1.69,1.5-3.36,1.55-5.06q.32-8.77.07-17.57c-.2-7.12,3.53-10.14,10.18-10.12,7,0,8.87,4.21,8.64,10.49-.27,7.27-.06,14.56-.06,21.83l2.74.49c.65-1.37,1.81-2.71,1.87-4.11.22-5.29,0-10.59.1-15.89.11-6.63-.38-12.71-7.76-15.87C617.24,461.56,612.62,465.06,608,470Zm-171.5-138.8,3.09.64c.53-1.9,1.46-3.79,1.53-5.71.23-6.13-.13-12.28.24-18.39.41-6.84,4.63-9.5,11.25-9.22,6.36.27,7.75,4,7.43,9.49-.29,5-.2,10,0,15.05.09,2.91.66,5.8,1,8.7l3.3-.14c0-9.41.61-18.88-.35-28.18-.31-3-4.62-7.75-7.35-7.93-5.46-.36-11.08,1.89-18.16,3.37-7.1-6.39-8.62-6.41-19.67,1.13l-3.08-4.66v35.46A4.65,4.65,0,0,0,418,327c.56-7.13.55-14.35,1.74-21.37.92-5.42,4.84-8.79,10.78-7.87,5.73.9,6.18,5.37,6.09,10.14C436.42,315.63,436.52,323.39,436.52,331.15ZM969.4,469.32c-8.49-6.84-15.33-7.62-21.41-2.38-6.43,5.55-8.9,20.67-3.39,27.49a20.77,20.77,0,0,0,12.12,7c4.3.63,9.06-2,13.4-3.1.48,5.27,1,10.91,1.51,16.55l3.1-.41V463.29C972.16,466.21,971,467.57,969.4,469.32ZM1265.62,501v-49.2l-2.56-.13c-.48,5.38-1,10.75-1.46,16.25-12.13-6.35-18.69-5.48-24.94,3.07-5.16,7.08-4.43,20.16,1.47,26.36s13.52,6.12,24-.54ZM833.26,227c-11.82-6.39-18.37-5.74-24.74,2.45-5.7,7.32-4.75,21.24,1.89,27.59,6.05,5.8,14.22,5.05,23.69-2.16.73,1.41,1.47,2.82,2.95,5.63V210.56a9.72,9.72,0,0,0-1.88.44C834.51,216.31,833.88,221.62,833.26,227Zm47.52,84.7c-4.07,5.9-6.59,11.22-10.6,14.93-4.93,4.57-11.26,4-16.94.51-9.46-5.88-13.75-20.63-7.88-30.84,11.57-20.12,23.7-13.45,35.57,1.63-.44-8.51-4.51-12.95-10.74-15.43-7.77-3.1-15.38-2.26-22,2.93-11,8.63-12.22,30.45-2.54,40.65,6.42,6.78,16.23,9,24.38,5.53C877.6,328.35,881.46,321.82,880.78,311.66ZM625.67,297.94l1.71-1.41c-.71-2.15-1-4.59-2.21-6.41-5.38-8.09-14.77-11.21-24.15-8.34-11.49,3.53-16.23,12.49-15.61,29.53a22.52,22.52,0,0,0,29.23,21c8.44-2.55,13.81-12.13,10.75-19.19-7.53,15.78-14.84,20.06-25.06,14.68s-14.75-23.59-7.62-34.47a23.28,23.28,0,0,1,11.61-8.49C615.28,281.31,619.8,291.22,625.67,297.94Zm490.41,184.19c-3.83,4.92-6.84,10.95-11.69,14.49-6.35,4.63-13.23,2-18.72-3.23-8.54-8.19-9.14-24.33-1.45-33.25,4.49-5.22,10.39-8.82,16.77-6.37,5.39,2.07,9.65,7.06,14.36,10.71.09-9.2-8-15.27-19.52-14.45-13.87,1-23.3,14.41-21.25,30.25,1.91,14.69,14.79,24.46,28.1,21.31C1112.49,499.27,1118.54,490.5,1116.08,482.13ZM559.56,315.4c1.29-12.61-4-20.12-14.2-20.95-8.54-.7-16.41,7.8-16.79,18.15-.47,12.81,5.58,20.24,16.44,20.19,9.38,0,14.23-4.41,13.78-13.54-5.24,6.19-9.79,14.25-18.78,9-3.5-2.05-5.28-7-7.84-10.65l1.94-2.19ZM385.43,465.66c.08-10.22-7.2-15.89-18.75-15.67-13.19.26-22.74,11.86-22.29,27.07.44,15,10.63,25.36,24.42,24.81,11.59-.45,18.53-8.07,17.7-22.18-8.42,18.2-18.8,28-34.32,10.38-6.67-7.58-3.14-27.5,4.3-32.88C365.39,450.74,374.78,453.27,385.43,465.66Zm220.41-50.82,1.94-2.76h26.75c-1-13.33-6.69-20.4-15.64-20.56-8.63-.15-16.12,8.18-16.63,18.5-.53,10.83,4.93,18.82,13.57,19.84,10.17,1.21,15.56-2.4,17.14-12.35-6,4.78-10.66,13.09-19.15,8C610.3,423.37,608.45,418.47,605.84,414.84Zm34.94,71.89,1.76-2.35h26c.79-12.62-4.69-20.27-14-20.88-8.48-.54-16.41,7.7-17.13,17.81-.85,11.75,4.81,19.81,14.44,20.56,10.33.8,14.93-2.79,16-13.89-5.63,6.82-10.46,14.92-19.7,9C644.82,494.91,643.18,490.23,640.78,486.73Zm-65.73-2.36c.4-12.72-4.47-19.85-13.64-20.81-8.29-.86-16.33,6.59-17.68,16.38-1.4,10.22,4.16,20.08,12.3,21.78,9.52,2,15.91-1.85,18.79-12.49-6.67,5.25-11.82,14-20.67,7.47-3.09-2.28-4.52-6.81-6.71-10.31l2.1-2Zm74.54-240.75c.5-12.45-5.9-21-15-21.2a16,16,0,0,0-15.76,18.41c.41,2.73-.19,5.61.18,8.35,1.08,7.92,7.61,12.19,17.37,11.62,7.36-.43,11.43-4.49,11.46-10.21-4.77,2.19-9.84,6.19-15.16,6.56-7.37.52-9.33-6.08-11-13.53ZM380.17,298.11A17,17,0,0,0,364.73,281c-11.68-1.11-22.88,7.53-25.12,19.38-2.63,13.92,5,28.87,16.25,32,13.41,3.72,26.54-6.16,25.34-22.56-7.57,17.52-17,28.24-32.61,12.75-7.74-7.67-6.21-25.54,1.5-33.09a18.51,18.51,0,0,1,9.07-5C368.78,282.78,374.69,289,380.17,298.11Zm648.08,32.94,1.51-.46V283l-2-.05c-.13,2.84-.31,5.68-.37,8.51s0,5.8,0,9.33c-11.81-8.11-18.77-7.91-25.64,0-6.2,7.13-5.83,20.43.76,27.7,5.83,6.43,13.9,5.9,24.33-1.62Zm-355-23.8c9.41-9,11.48-10.24,17.37-8.16,2.2.78,4.92,3.86,4.94,5.92s-2.79,4.93-5,5.75c-3.78,1.4-8.65.46-12,2.4s-7.14,6.17-7.17,9.42,3.83,8.28,7,9.33c3.91,1.29,9.23,0,13.35-1.62,2.64-1.06,4-3.11,6.55.06.76.94,3.42.35,4.36.41-.76-3.94-1.76-7.35-2-10.81-.34-4.7.23-9.47-.2-14.16-.68-7.44-6.59-11.81-14.65-11.36C678,294.87,673.69,298.88,673.25,307.25ZM503.8,331.65c-1.2-4.76-2.43-7.91-2.71-11.15-.48-5.53.14-11.18-.63-16.65-.89-6.37-7.62-10.7-14.45-9.29-5.89,1.23-12.34,2.72-12.4,9.08,5.94-1.61,11.63-3.71,17.49-4.37,1.57-.17,4.92,4,5,6.28.08,1.73-3.45,4.19-5.84,5.31-2.12,1-5,.33-7.38.88-8.85,2-12.75,6.81-11.23,13.47,1.3,5.7,8.18,9.7,15.55,7.16C492.87,330.42,497.85,327.74,503.8,331.65ZM1305.54,500.3c-.84-4.35-1.84-7.78-2.08-11.25-.35-5,.23-10.07-.28-15-.7-6.85-6.73-10.93-14.61-10.51s-11.91,4.15-12.26,12.69c1.6-1.32,3.09-2,3.6-3.09,2.86-6.3,8.31-6.41,13.45-4.85,2.25.68,4.59,4.25,4.93,6.77.19,1.42-3.33,4.11-5.64,4.93-3.85,1.37-8.21,1.28-12.1,2.57-5,1.65-8.77,5.65-6.51,10.72,1.6,3.58,6.08,7.71,9.69,8.13,4.93.58,10.25-2.12,15.29-3.39ZM814,315.66c.66-10.75-4.91-19.54-12.5-21.05-8-1.59-15.55,3.61-18.07,12.41-4.42,15.49,5.06,28.2,19.34,25.6,5.89-1.07,9-5,9.39-11-4.43,6.7-10.59,10.22-17.68,7.25-3.77-1.57-5.82-7.22-8.65-11l2-2.19ZM1198.64,477.2c2.39-1.91,3.82-2.47,4.18-3.43,2.39-6.52,7.77-7,13-5.64,2.36.62,5.32,4,5.49,6.34.12,1.74-3.48,4.53-5.95,5.5-3.78,1.48-8.71.76-11.85,2.89s-6.2,6.54-6.31,10.06c-.18,5.45,4.24,9.21,10,8.76,5-.39,9.78-2.26,15.24-3.62l6.62,2.19c-1.06-3.84-2.26-6.47-2.45-9.18-.35-5,.11-10-.17-15-.42-7.76-5.14-12.28-12.66-12.56C1205,463.15,1200.53,466.64,1198.64,477.2ZM734.58,234c1.09-1.44,1.95-3.85,3.3-4.16,4.82-1.1,9.84-2.07,14.7-1.76,1.31.08,3,4.8,3.16,7.49.08,1-3.36,2.77-5.44,3.4-4.68,1.42-9.68,1.92-14.24,3.6-5.6,2.07-6.13,7.14-4.38,11.84,2.54,6.84,8.92,7.62,14.69,6.09C752,259,757.06,256,763,258.8c.09.05.58-.74.1-.11-1-3.5-2.18-6.15-2.38-8.87-.35-5,.07-10-.13-15-.31-7.63-4.66-11.56-12.06-12.25C740.09,221.76,735.43,225.2,734.58,234ZM1070,331.54c-1.15-4.35-2.3-7-2.47-9.66-.33-5.26.25-10.6-.2-15.85-.7-8.22-7.25-12.7-16.06-11.49-7.68,1-11.36,5.28-9.83,15.18,3.14-10.39,9.12-12.79,16.41-10.5,2.09.66,4.58,4.17,4.53,6.32-.05,1.87-3.12,4.52-5.38,5.31-3.85,1.34-8.92.33-12,2.46-3.27,2.28-6.94,7.32-6.52,10.65s5.52,7.85,9,8.33c4.89.66,10.22-2,16-3.33Zm-20.17,153.19c1.37-12.8-5.47-20-15.43-21.13-8-.94-15.07,6.79-15.45,16.13-.59,14.68,4.33,22,15,22.14,9,.16,14-3.94,14.17-13.55-4.73,8.38-10.62,13.38-18.55,9.41-3.69-1.85-5.65-7.17-8.4-10.92l1.61-2.08ZM727.75,417.84c-5.73,6-11.22,13.07-20,7-3.15-2.18-4.59-6.82-6.8-10.33l1.89-2.2h26.06c.17-11.07-6-19.65-14-20.68-6.78-.88-15.67,6.5-17.15,14.23-1.88,9.79,2.82,21.13,9.76,23.6C716.77,432.71,724.07,429,727.75,417.84Zm176,82.59c-.89-4.49-1.91-7.9-2.17-11.37-.37-5,.29-10.08-.34-15-1-7.37-7.21-11.55-15.35-10.47-6.41.86-11.36,3.6-11.21,11.46,4.27-7.14,10.55-9,17.72-6.59,2,.67,4,4.26,4.08,6.6.08,1.61-2.79,4.06-4.85,4.9-3,1.21-6.4,1.26-9.63,1.86-6.33,1.18-11.28,3.86-10.1,11.42,1.15,7.3,6.47,8.91,13,8.69S897.19,494.47,903.73,500.43Zm251.41.08c-1.1-4.29-2.21-6.92-2.38-9.62-.32-5.26.23-10.58-.22-15.83-.65-7.69-6.29-12-14.42-11.58s-11.9,3.86-12.47,12.19c1.39-1.25,2.73-1.92,3.22-3,3.17-6.83,9.16-5.78,14.28-4.24,2.15.65,3.8,4.79,4.45,7.62.19.88-3.53,3.2-5.76,3.93-2.83.93-6,.71-9,1.35-6.35,1.4-11.13,4.71-9.73,12s7.08,9.68,13.87,8.35c3.35-.65,6.28-3.75,9.58-4.11C1149.28,497.29,1152.23,499.42,1155.14,500.51Zm-265-194.28c1.09-.83,2.62-1.44,3.21-2.54,3-5.49,8-6.14,12.91-4.66,2.37.71,5.27,4.06,5.41,6.37.1,1.76-3.48,4.5-5.94,5.46-3.78,1.49-8.72.79-11.86,2.93s-6.8,7.1-6.16,9.89c.8,3.51,5.44,8,9,8.57,4.86.76,10.23-1.8,16.66-3.22l4.55,1.67c-.39-7.47-1-14.27-1-21.08,0-7.47-2.32-13.19-10.15-14.95C898.33,292.78,892,296.71,890.1,306.23ZM638.56,332.42a40,40,0,0,0,.74-4.27c.33-7.21.28-14.45,1-21.63.65-6.75,5.73-8.14,11.52-8,6.19.15,7.85,3.83,7.67,9.38-.22,6.4-.18,12.82.1,19.22.06,1.48,1.54,2.9,2.37,4.34l2.11-.72q0-9.56,0-19.1a43.66,43.66,0,0,0-.13-5.84c-1.53-10.49-12.09-14.71-20.56-8.28-1.21.92-2.46,1.78-4.92,3.56V282C633.32,287,633.36,327,638.56,332.42ZM842.48,420.5l-2.79-3.2c-3.91,7.32-9.66,12.16-17.25,8.61-3.86-1.8-6-7.24-8.94-11l1.9-2.2h27.72c-.63-3.71-.76-5.92-1.4-8-4.6-14.82-19.08-16.13-26.91-6-5,6.49-5.61,22.81,1.22,27.35,4.31,2.87,11,3.86,16.25,3C836,428.48,839.11,423.51,842.48,420.5Zm149-89.42c-.37-8.18-.11-15.35-1.22-22.31-.67-4.26-2.54-10.69-5.44-11.71-5.13-1.82-11.58-.88-17.2.25-1.86.37-2.88,4.88-3.87,6.74,5.81-2,10.67-4.49,15.72-5,1.93-.19,4.31,4.21,6.48,6.52-2.22,1.82-4.2,4.21-6.74,5.29-2.72,1.15-6,.92-9,1.55-7.12,1.51-9.22,6.23-8.19,13s6,7.92,11.15,7.15c4.6-.69,9-2.95,13.68-4.6Zm-531,169c-.23-7.8.15-14.92-.86-21.83-.66-4.47-2.4-11.28-5.36-12.36-5-1.84-11.58-.63-17.18.64-1.95.44-3,4.86-4.44,7.47l2.25,1.78c2.94-6.82,7.94-9.86,14.51-7.62,2.45.83,4.06,4.15,6.05,6.34-2.17,1.88-4.06,4.49-6.58,5.48-3.52,1.38-7.79.91-11.24,2.38-5.08,2.16-8.34,7-5.82,12,1.71,3.39,6.6,6.65,10.41,7.11,4.39.53,9.16-2.09,14.36-3.5ZM351.36,382h29.42l-.18-1.85H348.15v47.19h32.57v-2.14H351.58V404.26h27.08l0-2.48H351.36Zm43.86,117.9,3,.44a45.58,45.58,0,0,0,1-6.29c.17-5.57-.27-11.19.24-16.73.6-6.53,4.87-9.92,11.3-9.71s9.41,3.76,9,10.37c-.31,4.72-.13,9.48,0,14.22.06,2.63.44,5.25.67,7.87l2.59-.22c0-8.27.11-16.54,0-24.8-.14-8.76-7.82-13.83-16.11-10.67a68.67,68.67,0,0,0-6.81,3.42c-.77-5.66-1.47-10.85-2.18-16l-2.63.34Zm261.11-241,1.94.62c.72-1.55,2-3.08,2.07-4.67.26-5.26,0-10.55.11-15.83.15-8.15,4.17-12.46,11.22-12.33,8,.16,9.24,5.49,9.19,11.9-.06,7,0,14,0,23.5,2.73-2.93,4.24-3.8,4.24-4.67,0-8.3.41-16.7-.74-24.88-1.24-8.85-9.15-12.1-17.62-8.67-3,1.24-6.51,1.44-10.4,2.24ZM493.41,500l4.58.28c0-8.22.51-16.48-.13-24.65-.77-10-8.23-14-17.8-10.68-3.34,1.16-7,1.29-11.05,2-2.39,16.37-1.1,31,4.18,33.29,0-7.58-.45-14.79.13-21.91.52-6.5,4-10.95,11.35-10.64s9.07,4.85,8.81,11.32C493.2,485.93,493.41,492.94,493.41,500Zm-3.44-89c0,12.37,5.34,18.81,15.81,18.95,10.77.15,17.32-6.8,17.56-18.59.21-10.76-7.74-19.92-17.13-19.75C497.21,391.69,490,400.3,490,410.92Zm26.78-168.54c0-12.42-5.44-19.58-15.17-19.88-10.4-.33-16.62,6.84-16.63,19.19s5.72,19.19,16.38,19.12C511.24,260.74,516.73,254.17,516.75,242.38ZM388.66,395.08v33.66l2.16.35c.51-2,1.38-4.09,1.46-6.16.25-5.85-.21-11.73.32-17.54.59-6.55,4.78-9.62,11.33-9.68,6.87,0,8.26,4.43,8.35,9.93.11,6.41-.06,12.82.15,19.22.05,1.44,1.23,2.83,1.88,4.24l2.43-.44c0-8.44.47-16.92-.12-25.32-.71-10.14-9.37-14.43-18.73-10.16C395.4,394.31,392.41,394.35,388.66,395.08Zm166.08,33.73,5-.16c-.73-10.45-.25-21.18-2.63-31.24-1.44-6.09-8.61-6.88-14.91-5.06-3.72,1.08-7.54,1.78-11.24,2.64v33l2.35.31a33.29,33.29,0,0,0,1.3-6c.24-5.84-.22-11.74.39-17.53.66-6.12,4.75-9,10.93-9.16,6.79-.19,8.59,4.1,8.73,9.62C554.89,413.14,554.74,421,554.74,428.81Zm12.46-.1,2.58.14a34.15,34.15,0,0,0,1-5.2c.27-6.39,0-12.82.6-19.18.62-7,5.45-9.22,11.82-8.67,6,.53,7.7,4.61,7.64,10-.06,5.85-.18,11.72,0,17.56.07,2,1.1,3.87,1.7,5.81l2.75-.43c0-8.44.44-16.92-.22-25.31a14.5,14.5,0,0,0-4.74-9.14c-7.14-5.88-13.39-1.92-19,3.22l-4.16-6.39Zm383.15-97.95,3.32,0c0-8.32.14-16.65,0-25-.19-8.51-8.24-13.51-16.37-10.65-3.62,1.28-7.49,1.87-11.06,2.73V331.7l2.27.25a28.84,28.84,0,0,0,1.26-5.47c.18-5.28,0-10.58.13-15.87.25-8,4.56-12.46,11.61-12.12,8,.38,8.94,6,8.89,12.27C950.32,317.43,950.35,324.09,950.35,330.76ZM794.57,259.23l3.42-.35c0-6.5-.08-13,0-19.49.1-6.32-.21-12.17-7.08-15.48-7.19-3.45-12.17.1-17,4.56l-2.81-4.64-2.1.54c-.37,11.76-.72,23.52,2.09,35.28,2-2.8,2.18-5.65,2.31-8.5.26-5.54.16-11.12.82-16.61.81-6.76,5.79-7.94,11.62-7.86,6.58.09,7.63,4.16,7.55,9.46q-.14,8.78.11,17.55A32.84,32.84,0,0,0,794.57,259.23ZM737,391.6v36.22l2.44,0c0-7-.24-13.95.06-20.9.31-7.17,5-11.48,11.58-11.25,7.51.26,9,5,8.76,11.36-.19,6.11-.16,12.24.1,18.35.05,1.31,1.49,2.57,2.28,3.85a105.92,105.92,0,0,0,1.62-28.51c-.21-2.65-3.34-5.77-5.93-7.39-6.9-4.31-12.63-1-17.52,4.36C739.37,396,738.61,394.59,737,391.6Zm275.34,73.86-2.43-.21c-.31,2-.74,3.93-.91,5.91-.58,6.58-.49,13.27-1.74,19.72-1.15,6-5.73,8.49-11.86,7.69s-7-5.35-7-10.4c0-6.41.06-12.83-.18-19.23,0-1.38-1.29-2.72-2.57-5.23-1,2.32-1.6,3-1.61,3.7-.09,7.24-.29,14.49-.08,21.73.33,11.18,9.65,16.11,19.88,11,2.27-1.13,5.26-.84,8.54-1.3Zm174.08,34.36,2.85,0c0-9.49.78-19.07-.26-28.45-.74-6.65-9.32-9.81-16-6.85-2.72,1.21-5.1,3.16-7.59,4.74l-3.12-5.64v37c2.28-1.43,3-3.05,3.09-4.69.19-5.29,0-10.59.2-15.87.38-8.31,4.44-12.65,11.35-12.5,8.43.19,9.6,5.84,9.51,12.54S1186.38,493.25,1186.38,499.82ZM780.92,476l2.69-1.57c-2.7-3.06-4.86-7.08-8.22-9-6.78-3.87-13.36-1.86-18.73,3.53-4.12,4.14-5.78,19.36-2.56,24.41,4,6.33,9.88,9.59,17.6,8.39,6.82-1.07,10.44-5.85,10-12.93-10.44,11.2-15.17,12.7-21.1,6.7-6.35-6.42-6.28-18.45.16-24.74C766.5,465.2,771.48,466.49,780.92,476ZM548.56,258.82l3.33,0c0-8.31.24-16.64-.06-24.95-.34-8.89-6.88-13.15-15.45-10.19-3.18,1.09-6.1,2.93-8.72,4.22l-3.07-4.07v36.3c1.31-1.55,1.61-1.74,1.62-1.94.21-6.08.29-12.17.62-18.24.43-8.17,5.76-13.57,12.83-13.21,8.68.44,8.94,6.61,8.91,13S548.56,252.45,548.56,258.82Zm-166.82-.08,2.76,0c0-6.48-.28-13,.07-19.43.5-9.06,4.91-13.21,12.83-12.71,8.6.54,8.9,6.71,8.87,13.12s0,12.72,0,19.07l2.91,0c0-9.45,1.13-19.09-.4-28.28-1-5.88-7.19-9.4-13.81-7.74-3.57.9-6.69,3.57-9.68,5.26l-3.55-5.57Zm352.65,72,2.87,0c0-9.44.73-19-.27-28.31-.62-5.82-9-9.65-14.66-7.61-3.28,1.18-6.14,3.53-8.91,5.18l-3.15-5.1v35.83h3.13c0-7-.12-14,0-21,.16-7.23,3.63-11.44,11.27-11.29s9.79,4.86,9.71,11.56C734.33,316.93,734.39,323.83,734.39,330.73ZM700.91,499.87l3.33,0c0-6.37-.08-12.75,0-19.13s0-13.3-6.91-15.33c-5.06-1.48-11,.11-16.56.33,0,.84,0,1.68,0,2.52L676.31,465v35.33l2.4.15a54.28,54.28,0,0,0,1-6.54c.15-4.72-.16-9.47.09-14.19.44-8.58,4.18-12.44,11.35-12.22,8.15.25,9.94,5.45,9.82,12.34C700.81,486.54,700.91,493.21,700.91,499.87ZM418.14,223.48l-3.2,1.74c3.75,9.76,7.39,19.58,11.34,29.26.73,1.79,2.69,3.07,4.09,4.58,1.45-1.7,3.4-3.18,4.27-5.15,2.67-6,5.07-12.21,7.27-18.44,1.23-3.49,1.83-7.21,2.72-10.83l-2.07-.55c-3.84,9.87-7.67,19.74-11.95,30.79C426.06,243.41,422.1,233.45,418.14,223.48Zm19.57,200.4c-6.23-10.46-6.53-22.45-15-30.39a275.7,275.7,0,0,0,11.39,31.44c.54,1.28,2.42,3.23,3.05,3a7.09,7.09,0,0,0,4-3.36c2.75-6.6,5.14-13.36,7.6-20.09,1.31-3.59,2.51-7.21,3.75-10.82l-2.88-1.09ZM511.8,300.14c0,7.79-.05,14.74,0,21.68.08,9.45,1.94,10.73,13.35,7.06-11,.06-8.54-6.54-8.69-11.61-.17-5.77,0-11.56,0-17l8.64-2.76-7.73-2.4c-1-4-1.78-7.07-2.55-10.12l-2.34.27c-.37,3.38-.73,6.75-1.08,10l-8.22,2.51ZM696,228.2c0,7.54,0,14.48,0,21.42.06,9.63,1.67,10.8,11.07,8.17-6.44-3.09-6.44-3.09-6.45-11.51,0-6.07,0-12.15,0-17.89l9.09-3.1-8-1.81-2.75-9.76-2.39.6c-.33,3-.65,5.92-1,9l-8,2.45ZM917,469.31l8.58-2.74-8.38-2.3c-.48-3.53-.88-6.45-1.56-11.42-3.56,6.46-5.88,10.65-7.58,13.73,1.3,2.88,3.43,5.76,3.81,8.85.64,5.19.09,10.53.19,15.8.17,9,1.79,10,12.34,7.41l-7.4-2.72Zm-445.08-76.4-1.94.93v34.91l4,.2c.24-6.32.71-12.64.66-19-.05-7.39,3.14-12,10.35-13.81a13.82,13.82,0,0,0,3.14-1.72c-.35-.93-.7-1.87-1.06-2.8l-12,5.24Zm317.79,109c6.51-7.22,5.88-47.06.41-50.25-.15,2.72-.39,5.13-.4,7.54C789.65,472.77,789.67,486.31,789.67,501.94ZM716,469.14c0,8.43-.11,15.95,0,23.46.14,7.87,2.72,9.23,12.14,5.13-9.12.3-9.23-4.73-8.91-10.47.33-6.07.07-12.18.07-18.11l7.78-1.86c-.05-.47-.1-1-.16-1.43l-7.26-1.51c-.41-3.52-.74-6.39-1.07-9.27l-2.06.25c-.32,2.95-.65,5.89-1,8.8l-8.17,3.06ZM467.56,224.29l-1.78.19v35.13l2.91.15c.19-4.34.56-8.69.53-13-.11-15.26-.16-15.26,12.81-21,.25-.11.15-1,.57-4.55L468.54,229ZM861.35,395.65l3.31-3.93c-14.95,5.64-7-6.15-12.24-9.15-.54,3.82-1,6.9-1.4,9.87l-6.1,1.45-.06,1.44,6.71,2c0,7.35,0,14.57,0,21.78,0,9.4,1.21,10.24,10.29,7.79-14.18-7.25-3.32-20-7.53-29.66Zm-85.11,1.59c0,8.14-.1,15.89,0,23.63.12,7.52,1.48,8.3,10.86,5.55l-7.27-2.27V397.3l8.57-2.94-8.36-1.93c-.45-3.35-.85-6.31-1.24-9.28l-1.88.12c-.42,3.09-.84,6.18-1.24,9.15l-6,1.62c0,.5,0,1,0,1.49ZM932.78,499.92c4.13-12.94,2.76-32.05-2.39-35.06C931,477.06,929,488.66,932.78,499.92ZM405.6,295.13c-5.87,5.93-5.44,32.54,0,36ZM462.14,430.5c-.94-13.89,1.1-25.71-2.08-37.25C455.8,401.11,456.59,425,462.14,430.5Zm-72-99.82,1.52,0V283l-1.52,0Zm63.93-106.2-1.65,0v34.27l1.65,0ZM803.58,499.79l1.67,0V465.43l-1.67,0Z"/><path class="cls-2" d="M2.81,210.59H48.87V331.12H2.81Z"/><path class="cls-2" d="M232.68,330.59H172.89V211.68h59.79Z"/><path class="cls-2" d="M155.76,254.34c-.84,6.61-1.56,12.25-2.28,17.89l2,.52c-3.84,3.62-7.39,7.63-11.58,10.79-5.64,4.24-11.45,8-7.16,17.21l-24.46-3.86v24l-3,0v-23.9l-23.61,3.93C88.28,284.7,71.27,283,68.39,272.4c-.83-5.57-1.66-11.13-2.61-17.45,5.58-.13,13.19,4.2,15.85-5.47l12.31,11.41,2.36-1.06c-1.48-8.34-3-16.67-4.65-26.14l9.38,4.49c3.21-5.62,6.3-11,9.7-16.94L120.14,238l9.44-3.63-4.41,25.35,2.44,1.12,12.24-11.31C142.56,259.71,150.17,254.92,155.76,254.34Z"/><path d="M862,500.43c-.56-1.65-1.54-3.28-1.59-4.95-.21-6.12-.26-12.25-.06-18.37.18-5.4-.93-9.28-7.43-9.51-6.79-.25-10.77,3.08-11.27,9.47-.59,7.57-.14,15.22-.14,22.83l-2.42.59c-.74-1.32-2.07-2.63-2.12-4-.23-6.4-.22-12.81-.08-19.21.12-5.21-.52-9.81-7.16-9.71-5.82.09-9.51,3.34-10,9.1s-.11,11.68-.33,17.52a37.51,37.51,0,0,1-1.2,6.13L815.7,500V466.9c3.34-.63,6.47-.64,9.07-1.82,6.4-2.89,10.23-2,15.93,4.72,4.92-4.73,10.43-9.11,17.36-4.55,2.91,1.92,6.13,5.61,6.46,8.79.9,8.49.31,17.14.31,25.73Z"/><path d="M769.38,298.21c2.45-.83,4.21-1.86,5.92-1.8.75,0,2,2.31,2,3.56,0,10.56.12,21.13-.41,31.66-.33,6.68-3,13-10.27,14.26-8,1.41-16.28,1.3-20.25-8.54,5.9,1.93,11.53,4.91,17.35,5.37,6.63.53,9.34-5.12,8.86-15.31-4.2,1.23-8.58,3.77-12.63,3.33s-9.25-2.84-11.68-6.08c-6.51-8.7-4.47-20.11,3.57-26.85C758.08,292.6,763.55,293.24,769.38,298.21Zm-20,15.4c.08,8.55,4.95,14.44,11.7,14.16,7.3-.3,12-6.28,11.89-15.15-.09-8.1-5.27-14.14-12.09-14.11C753.23,298.55,749.24,303.79,749.33,313.61Z"/><path d="M641.57,391.6c1.63,2.94,2.38,4.32,3.15,5.72,10.45-7.86,12.33-7.83,22.06.42,4.66-4.92,9.68-8.32,16.88-4.77,6.77,3.33,7.1,9.25,7,15.54-.06,5,.13,10-.08,15.05-.07,1.66-1.06,3.28-1.63,4.92l-3-.46c0-7.55-.29-15.12.1-22.65.31-6-1.2-9.66-8-9.74s-10.57,2.83-10.76,9.71c-.17,6.13,0,12.27-.17,18.4,0,1.79-.81,3.56-1.25,5.34l-3.4-.22c0-8,.23-16.05-.13-24.05-.12-2.74-1-7.06-2.77-7.76-3-1.2-7.48-1.21-10.2.31-2.28,1.27-3.79,5.35-4.12,8.36-.68,6.06-.23,12.24-.47,18.37-.07,1.65-.94,3.26-3.24,4.66Z"/><path d="M507.23,504c6.14,6.5,12.39,11.89,19.84,6.46,3.44-2.5,4.48-8.31,5.62-13.29-7.63,3.06-14.18,5.45-21,.35-7-5.24-7.41-12.7-6.4-20.3,1.44-10.93,12.79-16.43,22.5-11.55,2.14,1.08,5,.66,8.34,1,0,12.09.88,25.55-.32,38.83-.77,8.53-8.23,11.43-19.85,9.66C510.65,514.35,507,511.72,507.23,504Zm25.06-21.74c.05-9.24-3.82-14.38-11-14.64-7.4-.27-12.23,5.48-12.27,14.59,0,9.41,4.35,14.79,12,14.66C527.74,496.75,532.25,490.91,532.29,482.24Z"/><path d="M346.08,213.14v19.07h27l.23,3.53L346.44,237v18.72h30.05c-4.28,4.84-20.75,5.92-35.4,3.25V211.21h34l.2,1.93Z"/><path d="M583.72,259.49c0-7.37,0-14.74,0-22.11,0-5.81-1.41-11-8.6-10.57-6.48.36-9.89,4.3-9.87,10.95,0,7,0,14.08,0,22.23-5.07-4.18-6.2-20.83-4-33.65,4-1,7.25-2.4,10.48-2.44,5-.06,10,.8,15.06,1.27-.08.82-.15,1.64-.23,2.46,3.16-1.53,6.18-3.57,9.51-4.49,6.43-1.78,12.89.2,13.83,6.84,1.36,9.66.35,19.66.35,29.52l-2,.43c-.56-1.7-1.54-3.39-1.6-5.11-.2-6.69-.06-13.38-.15-20.07-.07-4.82-2.12-8-7.4-8.15s-9.76,1.15-10.47,7.1c-.69,5.77-.56,11.65-.84,17.48-.14,2.82-.4,5.64-.61,8.45Z"/><path d="M608,470c4.6-4.89,9.22-8.39,16.29-5.36,7.38,3.16,7.87,9.24,7.76,15.87-.08,5.3.12,10.6-.1,15.89-.06,1.4-1.22,2.74-1.87,4.11l-2.74-.49c0-7.27-.21-14.56.06-21.83.23-6.28-1.65-10.48-8.64-10.49-6.65,0-10.38,3-10.18,10.12q.25,8.79-.07,17.57c0,1.7-1,3.37-1.55,5.06l-3.09-.41c0-7.53-.09-15.06,0-22.59.08-5,0-9.86-6.44-10.6-6-.68-9.67,2.83-10.54,8.27-1.07,6.77-1.06,13.71-1.6,20.57a5.11,5.11,0,0,1-2.42,4.19V463.49l3.23,5.78C596.34,461.53,598.81,461.55,608,470Z"/><path d="M436.52,331.15c0-7.76-.1-15.52,0-23.27.09-4.77-.36-9.24-6.09-10.14-5.94-.92-9.86,2.45-10.78,7.87-1.19,7-1.18,14.24-1.74,21.37a4.65,4.65,0,0,1-2.23,3.78V295.3L418.8,300c11.05-7.54,12.57-7.52,19.67-1.13,7.08-1.48,12.7-3.73,18.16-3.37,2.73.18,7,4.91,7.35,7.93,1,9.3.35,18.77.35,28.18l-3.3.14c-.35-2.9-.92-5.79-1-8.7-.16-5-.25-10,0-15.05.32-5.52-1.07-9.22-7.43-9.49-6.62-.28-10.84,2.38-11.25,9.22-.37,6.11,0,12.26-.24,18.39-.07,1.92-1,3.81-1.53,5.71Z"/><path d="M969.4,469.32c1.55-1.75,2.76-3.11,5.33-6v51.22l-3.1.41c-.51-5.64-1-11.28-1.51-16.55-4.34,1.13-9.1,3.73-13.4,3.1a20.77,20.77,0,0,1-12.12-7c-5.51-6.82-3-21.94,3.39-27.49C954.07,461.7,960.91,462.48,969.4,469.32Zm1.2,15.18c.26-11.48-3.59-16.86-12.12-16.94-7.85-.07-12.46,5.47-12.59,15.11s4.21,15.76,11.5,15.94C965.61,498.82,970.4,493.7,970.6,484.5Z"/><path d="M1265.62,501l-3.52-4.19c-10.45,6.66-18,6.82-24,.54s-6.63-19.28-1.47-26.36c6.25-8.55,12.81-9.42,24.94-3.07.49-5.5,1-10.87,1.46-16.25l2.56.13Zm-1.81-19.14c-2.44-4.27-4-9.81-7.63-12.42-2.84-2-8.77-1.68-12.46-.21-6.27,2.49-8,17.39-3.75,23.8,3.37,5,8.25,7.2,13.63,5.19C1260.29,495.7,1263,490,1263.81,481.84Z"/><path d="M833.26,227c.62-5.34,1.25-10.65,1.91-16a9.72,9.72,0,0,1,1.88-.44v49.91c-1.48-2.81-2.22-4.22-2.95-5.63-9.47,7.21-17.64,8-23.69,2.16-6.64-6.35-7.59-20.27-1.89-27.59C814.89,221.22,821.44,220.57,833.26,227Zm-23.78,15.18c0,9.84,4.29,15.41,11.95,15.42s12.42-5.83,12.5-15.26c.08-10.37-4.27-15.77-12.63-15.67C813.28,226.73,809.5,231.68,809.48,242.14Z"/><path d="M880.78,311.66c.68,10.16-3.18,16.69-10.74,19.91-8.15,3.47-18,1.25-24.38-5.53-9.68-10.2-8.45-32,2.54-40.65,6.61-5.19,14.22-6,22-2.93,6.23,2.48,10.3,6.92,10.74,15.43-11.87-15.08-24-21.75-35.57-1.63-5.87,10.21-1.58,25,7.88,30.84,5.68,3.52,12,4.06,16.94-.51C874.19,322.88,876.71,317.56,880.78,311.66Z"/><path d="M625.67,297.94c-5.87-6.72-10.39-16.63-21.35-13.09a23.28,23.28,0,0,0-11.61,8.49c-7.13,10.88-2.65,29.08,7.62,34.47s17.53,1.1,25.06-14.68c3.06,7.06-2.31,16.64-10.75,19.19a22.52,22.52,0,0,1-29.23-21c-.62-17,4.12-26,15.61-29.53,9.38-2.87,18.77.25,24.15,8.34,1.21,1.82,1.5,4.26,2.21,6.41Z"/><path d="M1116.08,482.13c2.46,8.37-3.59,17.14-13.4,19.46-13.31,3.15-26.19-6.62-28.1-21.31-2-15.84,7.38-29.26,21.25-30.25,11.48-.82,19.61,5.25,19.52,14.45-4.71-3.65-9-8.64-14.36-10.71-6.38-2.45-12.28,1.15-16.77,6.37-7.69,8.92-7.09,25.06,1.45,33.25,5.49,5.27,12.37,7.86,18.72,3.23C1109.24,493.08,1112.25,487.05,1116.08,482.13Z"/><path d="M559.56,315.4H534.11l-1.94,2.19c2.56,3.64,4.34,8.6,7.84,10.65,9,5.26,13.54-2.8,18.78-9,.45,9.13-4.4,13.5-13.78,13.54-10.86,0-16.91-7.38-16.44-20.19.38-10.35,8.25-18.85,16.79-18.15C555.51,295.28,560.85,302.79,559.56,315.4Zm-26.25-4.56H555.9c-.47-7.13-3.37-11.76-10.29-12.22C537.87,298.1,534.28,302.69,533.31,310.84Z"/><path d="M385.43,465.66c-10.65-12.39-20-14.92-28.94-8.47-7.44,5.38-11,25.3-4.3,32.88,15.52,17.66,25.9,7.82,34.32-10.38.83,14.11-6.11,21.73-17.7,22.18-13.79.55-24-9.81-24.42-24.81-.45-15.21,9.1-26.81,22.29-27.07C378.23,449.77,385.51,455.44,385.43,465.66Z"/><path d="M605.84,414.84c2.61,3.63,4.46,8.53,8,10.65,8.49,5.11,13.15-3.2,19.15-8-1.58,9.95-7,13.56-17.14,12.35-8.64-1-14.1-9-13.57-19.84.51-10.32,8-18.65,16.63-18.5,9,.16,14.68,7.23,15.64,20.56H607.78Zm1-7h24.81c-3.15-6.58-5.51-11.87-12.94-12S608.2,400.21,606.85,407.8Z"/><path d="M640.78,486.73c2.4,3.5,4,8.18,7.34,10.28,9.24,5.89,14.07-2.21,19.7-9-1.1,11.1-5.7,14.69-16,13.89-9.63-.75-15.29-8.81-14.44-20.56.72-10.11,8.65-18.35,17.13-17.81,9.33.61,14.81,8.26,14,20.88h-26Zm1.43-6.33h21.7c-.09-8.12-3.35-12.34-9.29-12.82C648.11,467.06,643.26,471.51,642.21,480.4Z"/><path d="M575.05,484.37H549.54l-2.1,2c2.19,3.5,3.62,8,6.71,10.31,8.85,6.53,14-2.22,20.67-7.47-2.88,10.64-9.27,14.48-18.79,12.49-8.14-1.7-13.7-11.56-12.3-21.78,1.35-9.79,9.39-17.24,17.68-16.38C570.58,464.52,575.45,471.65,575.05,484.37Zm-3.91-4.4c-.89-8-4.15-12.49-11.65-12.3s-10.38,4.93-10.88,12.3Z"/><path d="M649.59,243.62H621.66c1.69,7.45,3.65,14.05,11,13.53,5.32-.37,10.39-4.37,15.16-6.56,0,5.72-4.1,9.78-11.46,10.21-9.76.57-16.29-3.7-17.37-11.62-.37-2.74.23-5.62-.18-8.35a16,16,0,0,1,15.76-18.41C643.69,222.67,650.09,231.17,649.59,243.62Zm-4.1-4.66c-.73-7.24-3.23-12.33-11-12.29s-10.71,5.2-12.19,12.29Z"/><path d="M380.17,298.11c-5.48-9.07-11.39-15.33-21-13.67a18.51,18.51,0,0,0-9.07,5c-7.71,7.55-9.24,25.42-1.5,33.09,15.64,15.49,25,4.77,32.61-12.75,1.2,16.4-11.93,26.28-25.34,22.56-11.29-3.13-18.88-18.08-16.25-32,2.24-11.85,13.44-20.49,25.12-19.38A17,17,0,0,1,380.17,298.11Z"/><path d="M1028.25,331.05c-.48-1.41-1-2.82-1.46-4.23-10.42,7.52-18.49,8.05-24.32,1.62-6.59-7.27-7-20.57-.76-27.7,6.87-7.91,13.83-8.11,25.64,0,0-3.53,0-6.43,0-9.33s.24-5.67.37-8.51l2,.05v47.64Zm-26.2-16.75c.07,9.69,4.68,15.4,12.31,15.24,7.41-.16,12.23-6.27,12.32-15.62.1-9.93-4.78-15.69-13.08-15.43C1005.7,298.73,1002,303.84,1002.05,314.3Z"/><path d="M673.25,307.25c.44-8.37,4.72-12.38,12.61-12.82,8.06-.45,14,3.92,14.65,11.36.43,4.69-.14,9.46.2,14.16.25,3.46,1.25,6.87,2,10.81-.94-.06-3.6.53-4.36-.41-2.56-3.17-3.91-1.12-6.55-.06-4.12,1.65-9.44,2.91-13.35,1.62-3.2-1.05-7.05-6.08-7-9.33s3.89-7.5,7.17-9.42,8.18-1,12-2.4c2.21-.82,5-3.78,5-5.75s-2.74-5.14-4.94-5.92C684.73,297,682.66,298.29,673.25,307.25Zm22,6.37c-4.34.3-8.78.13-13,1.05s-8.49,3.65-6.45,8.6c1.13,2.74,5.18,5.67,8.18,6C692.3,330.1,696.46,323.75,695.3,313.62Z"/><path d="M503.8,331.65c-5.95-3.91-10.93-1.23-16.56.72-7.37,2.54-14.25-1.46-15.55-7.16-1.52-6.66,2.38-11.46,11.23-13.47,2.42-.55,5.26.12,7.38-.88,2.39-1.12,5.92-3.58,5.84-5.31-.12-2.29-3.47-6.45-5-6.28-5.86.66-11.55,2.76-17.49,4.37.06-6.36,6.51-7.85,12.4-9.08,6.83-1.41,13.56,2.92,14.45,9.29.77,5.47.15,11.12.63,16.65C501.37,323.74,502.6,326.89,503.8,331.65Zm-7.89-18.4c-5.7,1-11,1.25-15.76,3-2,.71-4.32,5-3.79,6.85.72,2.53,3.77,5.63,6.32,6.19C490.89,331.06,496.89,324,495.91,313.25Z"/><path d="M1305.54,500.3,1299,498c-5,1.27-10.36,4-15.29,3.39-3.61-.42-8.09-4.55-9.69-8.13-2.26-5.07,1.56-9.07,6.51-10.72,3.89-1.29,8.25-1.2,12.1-2.57,2.31-.82,5.83-3.51,5.64-4.93-.34-2.52-2.68-6.09-4.93-6.77-5.14-1.56-10.59-1.45-13.45,4.85-.51,1.11-2,1.77-3.6,3.09.35-8.54,4.27-12.27,12.26-12.69s13.91,3.66,14.61,10.51c.51,5-.07,10,.28,15C1303.7,492.52,1304.7,496,1305.54,500.3Zm-7.24-18.08c-5.69,1.12-11,1.52-15.67,3.39-2,.81-4.43,5.12-3.86,7,.72,2.43,4,5.27,6.62,5.74C1293.7,499.86,1298.75,493.81,1298.3,482.22Z"/><path d="M814,315.66H787.83l-2,2.19c2.83,3.81,4.88,9.46,8.65,11,7.09,3,13.25-.55,17.68-7.25-.42,6-3.5,9.92-9.39,11-14.28,2.6-23.76-10.11-19.34-25.6,2.52-8.8,10.09-14,18.07-12.41C809.11,296.12,814.68,304.91,814,315.66Zm-4.6-4.77c-.71-8.84-4.37-13-11.2-12.33-7,.68-10.79,4.6-10.35,12.33Z"/><path d="M1198.64,477.2c1.89-10.56,6.33-14.05,15.12-13.71,7.52.28,12.24,4.8,12.66,12.56.28,5-.18,10,.17,15,.19,2.71,1.39,5.34,2.45,9.18l-6.62-2.19c-5.46,1.36-10.29,3.23-15.24,3.62-5.72.45-10.14-3.31-10-8.76.11-3.52,3.23-8,6.31-10.06s8.07-1.41,11.85-2.89c2.47-1,6.07-3.76,5.95-5.5-.17-2.32-3.13-5.72-5.49-6.34-5.25-1.37-10.63-.88-13,5.64C1202.46,474.73,1201,475.29,1198.64,477.2Zm22.26,5.38c-4.8.84-9.86,1-14.26,2.78-2.33.94-5.05,4.88-4.79,7.15s3.81,5.37,6.34,5.85C1217.55,500.16,1222.5,494,1220.9,482.58Z"/><path d="M734.58,234c.85-8.81,5.51-12.25,14-11.46,7.4.69,11.75,4.62,12.06,12.25.2,5-.22,10,.13,15,.2,2.72,1.41,5.37,2.38,8.87.48-.63,0,.16-.1.11-6-2.84-11.06.24-16.64,1.71-5.77,1.53-12.15.75-14.69-6.09-1.75-4.7-1.22-9.77,4.38-11.84,4.56-1.68,9.56-2.18,14.24-3.6,2.08-.63,5.52-2.37,5.44-3.4-.19-2.69-1.85-7.41-3.16-7.49-4.86-.31-9.88.66-14.7,1.76C736.53,230.16,735.67,232.57,734.58,234Zm20.93,7.37c-5.41.92-10.49,1.07-15,2.82-2.21.87-4.83,5-4.43,7.06.44,2.4,3.75,5.51,6.3,6.06C750.81,259.12,756.54,252.37,755.51,241.38Z"/><path d="M1070,331.54l-6.46-2.58c-5.79,1.37-11.12,4-16,3.33-3.52-.48-8.62-5.07-9-8.33s3.25-8.37,6.52-10.65c3.07-2.13,8.14-1.12,12-2.46,2.26-.79,5.33-3.44,5.38-5.31,0-2.15-2.44-5.66-4.53-6.32-7.29-2.29-13.27.11-16.41,10.5-1.53-9.9,2.15-14.13,9.83-15.18,8.81-1.21,15.36,3.27,16.06,11.49.45,5.25-.13,10.59.2,15.85C1067.73,324.57,1068.88,327.19,1070,331.54Zm-8-18.42c-5,1-10.33,1.31-14.92,3.28-2.23,1-4.64,5.34-4.17,7.59s4.27,5,6.91,5.32C1059.24,330.58,1063.57,324.64,1062,313.12Z"/><path d="M1049.86,484.73h-27.08l-1.61,2.08c2.75,3.75,4.71,9.07,8.4,10.92,7.93,4,13.82-1,18.55-9.41-.12,9.61-5.18,13.71-14.17,13.55-10.64-.18-15.56-7.46-15-22.14.38-9.34,7.46-17.07,15.45-16.13C1044.39,464.77,1051.23,471.93,1049.86,484.73Zm-4.08-4.76c-.54-7.1-3.14-11.73-10.17-12.21-8.2-.57-11.27,4.83-13.36,12.21Z"/><path d="M727.75,417.84c-3.68,11.17-11,14.87-20.25,11.59-6.94-2.47-11.64-13.81-9.76-23.6,1.48-7.73,10.37-15.11,17.15-14.23,8,1,14.17,9.61,14,20.68H702.83l-1.89,2.2c2.21,3.51,3.65,8.15,6.8,10.33C716.53,430.91,722,423.81,727.75,417.84Zm-3.49-9.7c-.59-8.86-4.61-12.88-11.62-12.44-6.44.41-10,4.95-9.45,12.44Z"/><path d="M903.73,500.43c-6.54-6-12.21,1.26-18.85,1.48s-11.85-1.39-13-8.69c-1.18-7.56,3.77-10.24,10.1-11.42,3.23-.6,6.66-.65,9.63-1.86,2.06-.84,4.93-3.29,4.85-4.9-.11-2.34-2.09-5.93-4.08-6.6-7.17-2.39-13.45-.55-17.72,6.59-.15-7.86,4.8-10.6,11.21-11.46,8.14-1.08,14.4,3.1,15.35,10.47.63,4.94,0,10,.34,15C901.82,492.53,902.84,495.94,903.73,500.43Zm-7.47-18.62c-5,1.1-9.78,1.41-13.84,3.34-2.57,1.22-4,4.86-5.92,7.41,2.8,2,5.44,5.47,8.42,5.78C893,499.18,897.24,492.84,896.26,481.81Z"/><path d="M1155.14,500.51c-2.91-1.09-5.86-3.22-8.55-2.93-3.3.36-6.23,3.46-9.58,4.11-6.79,1.33-12.44-.95-13.87-8.35s3.38-10.6,9.73-12c3-.64,6.14-.42,9-1.35,2.23-.73,6-3.05,5.76-3.93-.65-2.83-2.3-7-4.45-7.62-5.12-1.54-11.11-2.59-14.28,4.24-.49,1.07-1.83,1.74-3.22,3,.57-8.33,4.35-11.78,12.47-12.19s13.77,3.89,14.42,11.58c.45,5.25-.1,10.57.22,15.83C1152.93,493.59,1154,496.22,1155.14,500.51ZM1147.25,483c-4.7.22-9-.1-13,.76-4.24.91-8.44,3.67-6.35,8.61,1.15,2.73,5.15,5.62,8.13,5.94C1144.09,499.15,1148.38,493,1147.25,483Z"/><path d="M890.1,306.23c1.89-9.52,8.23-13.45,16.59-11.56,7.83,1.76,10.15,7.48,10.15,14.95,0,6.81.63,13.61,1,21.08L913.31,329c-6.43,1.42-11.8,4-16.66,3.22-3.54-.55-8.18-5.06-9-8.57-.64-2.79,3.07-7.79,6.16-9.89s8.08-1.44,11.86-2.93c2.46-1,6-3.7,5.94-5.46-.14-2.31-3-5.66-5.41-6.37-4.93-1.48-10-.83-12.91,4.66C892.72,304.79,891.19,305.4,890.1,306.23Zm21.22,6.93c-5.05,1-10.32,1.41-15,3.26-2.11.82-4.66,4.87-4.21,6.79a9.74,9.74,0,0,0,6.25,6C907.93,331.19,912.88,324.88,911.32,313.16Z"/><path d="M638.56,332.42c-5.2-5.43-5.24-45.43-.13-50.4v19.05c2.46-1.78,3.71-2.64,4.92-3.56,8.47-6.43,19-2.21,20.56,8.28a43.66,43.66,0,0,1,.13,5.84q0,9.56,0,19.1l-2.11.72c-.83-1.44-2.31-2.86-2.37-4.34-.28-6.4-.32-12.82-.1-19.22.18-5.55-1.48-9.23-7.67-9.38-5.79-.13-10.87,1.26-11.52,8-.69,7.18-.64,14.42-1,21.63A40,40,0,0,1,638.56,332.42Z"/><path d="M842.48,420.5c-3.37,3-6.44,8-10.2,8.58-5.22.82-11.94-.17-16.25-3-6.83-4.54-6.25-20.86-1.22-27.35,7.83-10.11,22.31-8.8,26.91,6,.64,2,.77,4.25,1.4,8H815.4l-1.9,2.2c2.92,3.8,5.08,9.24,8.94,11,7.59,3.55,13.34-1.29,17.25-8.61Zm-28.39-12.68h24.48c-1.81-7.22-4.85-12.12-12.24-12S816.41,401.22,814.09,407.82Z"/><path d="M991.51,331.08l-4.6-3.09c-4.7,1.65-9.08,3.91-13.68,4.6-5.19.77-10.13-.47-11.15-7.15s1.07-11.5,8.19-13c3-.63,6.25-.4,9-1.55,2.54-1.08,4.52-3.47,6.74-5.29-2.17-2.31-4.55-6.71-6.48-6.52-5,.49-9.91,3-15.72,5,1-1.86,2-6.37,3.87-6.74,5.62-1.13,12.07-2.07,17.2-.25,2.9,1,4.77,7.45,5.44,11.71C991.4,315.73,991.14,322.9,991.51,331.08Zm-6.22-17.4c-4.06.45-7.84.74-11.57,1.36-1.58.26-3.5.85-4.45,2-1.62,1.9-4,4.71-3.49,6.47a9.32,9.32,0,0,0,5.72,5.73C978.74,331,988.75,325.85,985.29,313.68Z"/><path d="M460.48,500.05l-3.9-2.09c-5.2,1.41-10,4-14.36,3.5-3.81-.46-8.7-3.72-10.41-7.11-2.52-5,.74-9.86,5.82-12,3.45-1.47,7.72-1,11.24-2.38,2.52-1,4.41-3.6,6.58-5.48-2-2.19-3.6-5.51-6.05-6.34-6.57-2.24-11.57.8-14.51,7.62L432.64,474c1.45-2.61,2.49-7,4.44-7.47,5.6-1.27,12.14-2.48,17.18-.64,3,1.08,4.7,7.89,5.36,12.36C460.63,485.13,460.25,492.25,460.48,500.05Zm-5.26-17.62c-5.25.91-10.06,1.07-14.3,2.72-2.51,1-4.11,4.29-6.13,6.55,2.77,2.31,5.27,6.09,8.34,6.63C451,499.71,455.38,494,455.22,482.43Z"/><path d="M351.36,382v19.8h27.35l0,2.48H351.58v20.92h29.14v2.14H348.15V380.13H380.6l.18,1.85Z"/><path d="M395.22,499.88v-47.8l2.63-.34c.71,5.19,1.41,10.38,2.18,16a68.67,68.67,0,0,1,6.81-3.42c8.29-3.16,16,1.91,16.11,10.67.14,8.26,0,16.53,0,24.8l-2.59.22c-.23-2.62-.61-5.24-.67-7.87-.11-4.74-.29-9.5,0-14.22.44-6.61-2.62-10.16-9-10.37s-10.7,3.18-11.3,9.71c-.51,5.54-.07,11.16-.24,16.73a45.58,45.58,0,0,1-1,6.29Z"/><path d="M656.33,258.84V226.05c3.89-.8,7.36-1,10.4-2.24,8.47-3.43,16.38-.18,17.62,8.67,1.15,8.18.7,16.58.74,24.88,0,.87-1.51,1.74-4.24,4.67,0-9.49-.05-16.49,0-23.5,0-6.41-1.17-11.74-9.19-11.9-7-.13-11.07,4.18-11.22,12.33-.1,5.28.15,10.57-.11,15.83-.07,1.59-1.35,3.12-2.07,4.67Z"/><path d="M493.41,500c0-7-.21-14,.07-21,.26-6.47-1.46-11-8.81-11.32s-10.83,4.14-11.35,10.64c-.58,7.12-.13,14.33-.13,21.91-5.28-2.28-6.57-16.92-4.18-33.29,4-.68,7.71-.81,11.05-2,9.57-3.3,17,.7,17.8,10.68.64,8.17.13,16.43.13,24.65Z"/><path d="M490,410.92c0-10.62,7.24-19.23,16.24-19.39,9.39-.17,17.34,9,17.13,19.75-.24,11.79-6.79,18.74-17.56,18.59C495.31,429.73,489.94,423.29,490,410.92Zm28.68.32c0-10.38-3.74-15.35-11.8-15.53s-13.45,6.13-13.54,15.51c-.09,9,5,15.34,12.41,15.43C514.14,426.75,518.61,421.42,518.65,411.24Z"/><path d="M516.75,242.38c0,11.79-5.51,18.36-15.42,18.43-10.66.07-16.4-6.63-16.38-19.12s6.23-19.52,16.63-19.19C511.31,222.8,516.77,230,516.75,242.38Zm-28.51.09c0,9.37,4.75,15,12.57,15.1,8,0,12.68-5.84,12.64-16,0-9.13-5.23-15.1-13-14.94C493,226.81,488.21,233,488.24,242.47Z"/><path d="M388.66,395.08c3.75-.73,6.74-.77,9.23-1.9,9.36-4.27,18,0,18.73,10.16.59,8.4.12,16.88.12,25.32l-2.43.44c-.65-1.41-1.83-2.8-1.88-4.24-.21-6.4,0-12.81-.15-19.22-.09-5.5-1.48-10-8.35-9.93-6.55.06-10.74,3.13-11.33,9.68-.53,5.81-.07,11.69-.32,17.54-.08,2.07-.95,4.11-1.46,6.16l-2.16-.35Z"/><path d="M554.74,428.81c0-7.83.15-15.67,0-23.5-.14-5.52-1.94-9.81-8.73-9.62-6.18.17-10.27,3-10.93,9.16-.61,5.79-.15,11.69-.39,17.53a33.29,33.29,0,0,1-1.3,6L531,428V395c3.7-.86,7.52-1.56,11.24-2.64,6.3-1.82,13.47-1,14.91,5.06,2.38,10.06,1.9,20.79,2.63,31.24Z"/><path d="M567.2,428.71V391.09l4.16,6.39c5.65-5.14,11.9-9.1,19-3.22a14.5,14.5,0,0,1,4.74,9.14c.66,8.39.22,16.87.22,25.31l-2.75.43c-.6-1.94-1.63-3.85-1.7-5.81-.22-5.84-.1-11.71,0-17.56.06-5.36-1.62-9.44-7.64-10-6.37-.55-11.2,1.67-11.82,8.67-.56,6.36-.33,12.79-.6,19.18a34.15,34.15,0,0,1-1,5.2Z"/><path d="M950.35,330.76c0-6.67,0-13.33,0-20,0-6.3-.89-11.89-8.89-12.27-7.05-.34-11.36,4.13-11.61,12.12-.17,5.29,0,10.59-.13,15.87a28.84,28.84,0,0,1-1.26,5.47l-2.27-.25V297.86c3.57-.86,7.44-1.45,11.06-2.73,8.13-2.86,16.18,2.14,16.37,10.65.18,8.31,0,16.64,0,25Z"/><path d="M794.57,259.23a32.84,32.84,0,0,1-1.08-5.54q-.25-8.77-.11-17.55c.08-5.3-1-9.37-7.55-9.46-5.83-.08-10.81,1.1-11.62,7.86-.66,5.49-.56,11.07-.82,16.61-.13,2.85-.33,5.7-2.31,8.5-2.81-11.76-2.46-23.52-2.09-35.28l2.1-.54,2.81,4.64c4.86-4.46,9.84-8,17-4.56,6.87,3.31,7.18,9.16,7.08,15.48-.1,6.5,0,13,0,19.49Z"/><path d="M737,391.6c1.65,3,2.41,4.36,3.39,6.11,4.89-5.32,10.62-8.67,17.52-4.36,2.59,1.62,5.72,4.74,5.93,7.39a105.92,105.92,0,0,1-1.62,28.51c-.79-1.28-2.23-2.54-2.28-3.85-.26-6.11-.29-12.24-.1-18.35.2-6.32-1.25-11.1-8.76-11.36-6.58-.23-11.27,4.08-11.58,11.25-.3,6.95-.06,13.93-.06,20.9l-2.44,0Z"/><path d="M1012.3,465.46v33.36c-3.28.46-6.27.17-8.54,1.3-10.23,5.13-19.55.2-19.88-11-.21-7.24,0-14.49.08-21.73,0-.69.58-1.38,1.61-3.7,1.28,2.51,2.52,3.85,2.57,5.23.24,6.4.16,12.82.18,19.23,0,5.05.79,9.59,7,10.4s10.71-1.72,11.86-7.69c1.25-6.45,1.16-13.14,1.74-19.72.17-2,.6-3.94.91-5.91Z"/><path d="M1186.38,499.82c0-6.57-.06-13.14,0-19.7s-1.08-12.35-9.51-12.54c-6.91-.15-11,4.19-11.35,12.5-.24,5.28,0,10.58-.2,15.87-.06,1.64-.81,3.26-3.09,4.69v-37l3.12,5.64c2.49-1.58,4.87-3.53,7.59-4.74,6.69-3,15.27.2,16,6.85,1,9.38.26,19,.26,28.45Z"/><path d="M780.92,476c-9.44-9.52-14.42-10.81-20.14-5.21-6.44,6.29-6.51,18.32-.16,24.74,5.93,6,10.66,4.5,21.1-6.7.42,7.08-3.2,11.86-10,12.93-7.72,1.2-13.55-2.06-17.6-8.39-3.22-5.05-1.56-20.27,2.56-24.41,5.37-5.39,12-7.4,18.73-3.53,3.36,1.92,5.52,5.94,8.22,9Z"/><path d="M548.56,258.82c0-6.37,0-12.73,0-19.1s-.23-12.58-8.91-13c-7.07-.36-12.4,5-12.83,13.21-.33,6.07-.41,12.16-.62,18.24,0,.2-.31.39-1.62,1.94v-36.3l3.07,4.07c2.62-1.29,5.54-3.13,8.72-4.22,8.57-3,15.11,1.3,15.45,10.19.3,8.31.06,16.64.06,24.95Z"/><path d="M381.74,258.74V222.45l3.55,5.57c3-1.69,6.11-4.36,9.68-5.26,6.62-1.66,12.82,1.86,13.81,7.74,1.53,9.19.4,18.83.4,28.28l-2.91,0c0-6.35,0-12.71,0-19.07s-.27-12.58-8.87-13.12c-7.92-.5-12.33,3.65-12.83,12.71-.35,6.46-.07,12.95-.07,19.43Z"/><path d="M734.39,330.73c0-6.9-.06-13.8,0-20.7.08-6.7-2.1-11.4-9.71-11.56s-11.11,4.06-11.27,11.29c-.15,7,0,14,0,21h-3.13V294.94l3.15,5.1c2.77-1.65,5.63-4,8.91-5.18,5.65-2,14,1.79,14.66,7.61,1,9.34.27,18.87.27,28.31Z"/><path d="M700.91,499.87c0-6.66-.1-13.33,0-20,.12-6.89-1.67-12.09-9.82-12.34-7.17-.22-10.91,3.64-11.35,12.22-.25,4.72.06,9.47-.09,14.19a54.28,54.28,0,0,1-1,6.54l-2.4-.15V465l4.52,3.28c0-.84,0-1.68,0-2.52,5.55-.22,11.5-1.81,16.56-.33,6.95,2,7,9,6.91,15.33s0,12.76,0,19.13Z"/><path d="M418.14,223.48c4,10,7.92,19.93,12.47,31.4,4.28-11,8.11-20.92,11.95-30.79l2.07.55c-.89,3.62-1.49,7.34-2.72,10.83-2.2,6.23-4.6,12.4-7.27,18.44-.87,2-2.82,3.45-4.27,5.15-1.4-1.51-3.36-2.79-4.09-4.58-3.95-9.68-7.59-19.5-11.34-29.26Z"/><path d="M437.71,423.88l11.91-31.29,2.88,1.09c-1.24,3.61-2.44,7.23-3.75,10.82-2.46,6.73-4.85,13.49-7.6,20.09a7.09,7.09,0,0,1-4,3.36c-.63.21-2.51-1.74-3.05-3a275.7,275.7,0,0,1-11.39-31.44C431.18,401.43,431.48,413.42,437.71,423.88Z"/><path d="M511.8,300.14l-8.65-2.35,8.22-2.51c.35-3.23.71-6.6,1.08-10l2.34-.27c.77,3.05,1.54,6.09,2.55,10.12l7.73,2.4-8.64,2.76c0,5.4-.13,11.19,0,17,.15,5.07-2.32,11.67,8.69,11.61-11.41,3.67-13.27,2.39-13.35-7.06C511.75,314.88,511.8,307.93,511.8,300.14Z"/><path d="M696,228.2l-8.46-2.47,8-2.45c.34-3,.66-6,1-9l2.39-.6,2.75,9.76,8,1.81-9.09,3.1c0,5.74,0,11.82,0,17.89,0,8.42,0,8.42,6.45,11.51-9.4,2.63-11,1.46-11.07-8.17C696,242.68,696,235.74,696,228.2Z"/><path d="M917,469.31v26.61l7.4,2.72c-10.55,2.64-12.17,1.55-12.34-7.41-.1-5.27.45-10.61-.19-15.8-.38-3.09-2.51-6-3.81-8.85,1.7-3.08,4-7.27,7.58-13.73.68,5,1.08,7.89,1.56,11.42l8.38,2.3Z"/><path d="M471.88,392.91l3.16,4,12-5.24c.36.93.71,1.87,1.06,2.8a13.82,13.82,0,0,1-3.14,1.72c-7.21,1.83-10.4,6.42-10.35,13.81.05,6.32-.42,12.64-.66,19l-4-.2V393.84Z"/><path d="M789.67,501.94c0-15.63,0-29.17,0-42.71,0-2.41.25-4.82.4-7.54C795.55,454.88,796.18,494.72,789.67,501.94Z"/><path d="M716,469.14l-8.59-1.95,8.17-3.06c.32-2.91.65-5.85,1-8.8l2.06-.25c.33,2.88.66,5.75,1.07,9.27l7.26,1.51c.06.48.11,1,.16,1.43l-7.78,1.86c0,5.93.26,12-.07,18.11-.32,5.74-.21,10.77,8.91,10.47-9.42,4.1-12,2.74-12.14-5.13C715.88,485.09,716,477.57,716,469.14Z"/><path d="M467.56,224.29l1,4.73,14.06-7.82c-.42,3.55-.32,4.44-.57,4.55-13,5.72-12.92,5.72-12.81,21,0,4.34-.34,8.69-.53,13l-2.91-.15V224.48Z"/><path d="M861.35,395.65l-7,1.62c4.21,9.64-6.65,22.41,7.53,29.66-9.08,2.45-10.24,1.61-10.29-7.79,0-7.21,0-14.43,0-21.78l-6.71-2,.06-1.44,6.1-1.45c.42-3,.86-6.05,1.4-9.87,5.28,3-2.71,14.79,12.24,9.15Z"/><path d="M776.24,397.24l-6.54-1.71c0-.5,0-1,0-1.49l6-1.62c.4-3,.82-6.06,1.24-9.15l1.88-.12c.39,3,.79,5.93,1.24,9.28l8.36,1.93-8.57,2.94v26.85l7.27,2.27c-9.38,2.75-10.74,2-10.86-5.55C776.14,413.13,776.24,405.38,776.24,397.24Z"/><path d="M932.78,499.92c-3.78-11.26-1.78-22.86-2.39-35.06C935.54,467.87,936.91,487,932.78,499.92Z"/><path d="M405.6,295.13v36C400.16,327.67,399.73,301.06,405.6,295.13Z"/><path d="M462.14,430.5c-5.55-5.55-6.34-29.39-2.08-37.25C463.24,404.79,461.2,416.61,462.14,430.5Z"/><ellipse cx="390.89" cy="306.85" rx="1.07" ry="33.72"/><path d="M454.06,224.48v34.24l-1.65,0V224.5Z"/><path d="M803.58,499.79V465.47l1.67,0v34.33Z"/><path class="cls-1" d="M749.33,313.61c-.09-9.82,3.9-15.06,11.5-15.1,6.82,0,12,6,12.09,14.11.1,8.87-4.59,14.85-11.89,15.15C754.28,328.05,749.41,322.16,749.33,313.61Z"/><path class="cls-1" d="M532.29,482.24c0,8.67-4.55,14.51-11.29,14.61-7.63.13-12-5.25-12-14.66,0-9.11,4.87-14.86,12.27-14.59C528.47,467.86,532.34,473,532.29,482.24Z"/><path class="cls-1" d="M970.6,484.5c-.2,9.2-5,14.32-13.21,14.11-7.29-.18-11.63-6.19-11.5-15.94s4.74-15.18,12.59-15.11C967,467.64,970.86,473,970.6,484.5Z"/><path class="cls-1" d="M1263.81,481.84c-.85,8.13-3.52,13.86-10.21,16.36-5.38,2-10.26-.15-13.63-5.19-4.29-6.41-2.52-21.31,3.75-23.8,3.69-1.47,9.62-1.83,12.46.21C1259.82,472,1261.37,477.57,1263.81,481.84Z"/><path class="cls-1" d="M809.48,242.14c0-10.46,3.8-15.41,11.82-15.51,8.36-.1,12.71,5.3,12.63,15.67-.08,9.43-4.86,15.27-12.5,15.26S809.46,252,809.48,242.14Z"/><path class="cls-1" d="M533.31,310.84c1-8.15,4.56-12.74,12.3-12.22,6.92.46,9.82,5.09,10.29,12.22Z"/><path class="cls-1" d="M606.85,407.8c1.35-7.59,4.33-12.15,11.87-12s9.79,5.43,12.94,12Z"/><path class="cls-1" d="M642.21,480.4c1-8.89,5.9-13.34,12.41-12.82,5.94.48,9.2,4.7,9.29,12.82h-21.7Z"/><path class="cls-1" d="M571.14,480H548.61c.5-7.37,3.39-12.12,10.88-12.3S570.25,472,571.14,480Z"/><path class="cls-1" d="M645.49,239H622.31c1.48-7.09,4.37-12.26,12.19-12.29S644.76,231.72,645.49,239Z"/><path class="cls-1" d="M1002.05,314.3c-.08-10.46,3.65-15.57,11.55-15.81,8.3-.26,13.18,5.5,13.08,15.43-.09,9.35-4.91,15.46-12.32,15.62C1006.73,329.7,1002.12,324,1002.05,314.3Z"/><path class="cls-1" d="M695.3,313.62c1.16,10.13-3,16.48-11.25,15.63-3-.31-7-3.24-8.18-6-2-4.95,2.2-7.68,6.45-8.6S691,313.92,695.3,313.62Z"/><path class="cls-1" d="M495.91,313.25c1,10.77-5,17.81-13.23,16-2.55-.56-5.6-3.66-6.32-6.19-.53-1.88,1.82-6.14,3.79-6.85C484.92,314.5,490.21,314.22,495.91,313.25Z"/><path class="cls-1" d="M1298.3,482.22c.45,11.59-4.6,17.64-12.91,16.14-2.59-.47-5.9-3.31-6.62-5.74-.57-1.89,1.82-6.2,3.86-7C1287.32,483.74,1292.61,483.34,1298.3,482.22Z"/><path class="cls-1" d="M809.42,310.89H787.87c-.44-7.73,3.35-11.65,10.35-12.33C805.05,297.89,808.71,302.05,809.42,310.89Z"/><path class="cls-1" d="M1220.9,482.58c1.6,11.44-3.35,17.58-12.71,15.78-2.53-.48-6.07-3.61-6.34-5.85s2.46-6.21,4.79-7.15C1211,483.57,1216.1,483.42,1220.9,482.58Z"/><path class="cls-1" d="M755.51,241.38c1,11-4.7,17.74-13.08,15.94-2.55-.55-5.86-3.66-6.3-6.06-.4-2.11,2.22-6.19,4.43-7.06C745,242.45,750.1,242.3,755.51,241.38Z"/><path class="cls-1" d="M1062,313.12c1.59,11.52-2.74,17.46-12.18,16.19-2.64-.36-6.45-3.09-6.91-5.32s1.94-6.64,4.17-7.59C1051.65,314.43,1057,314.11,1062,313.12Z"/><path class="cls-1" d="M1045.78,480h-23.53c2.09-7.38,5.16-12.78,13.36-12.21C1042.64,468.24,1045.24,472.87,1045.78,480Z"/><path class="cls-1" d="M724.26,408.14H703.19c-.53-7.49,3-12,9.45-12.44C719.65,395.26,723.67,399.28,724.26,408.14Z"/><path class="cls-1" d="M896.26,481.81c1,11-3.27,17.37-11.34,16.53-3-.31-5.62-3.76-8.42-5.78,1.93-2.55,3.35-6.19,5.92-7.41C886.48,483.22,891.31,482.91,896.26,481.81Z"/><path class="cls-1" d="M1147.25,483c1.13,10-3.16,16.15-11.19,15.31-3-.32-7-3.21-8.13-5.94-2.09-4.94,2.11-7.7,6.35-8.61C1138.29,482.9,1142.55,483.22,1147.25,483Z"/><path class="cls-1" d="M911.32,313.16c1.56,11.72-3.39,18-13,16.09a9.74,9.74,0,0,1-6.25-6c-.45-1.92,2.1-6,4.21-6.79C901,314.57,906.27,314.16,911.32,313.16Z"/><path class="cls-1" d="M814.09,407.82c2.32-6.6,4.85-11.91,12.24-12s10.43,4.8,12.24,12Z"/><path class="cls-1" d="M985.29,313.68c3.46,12.17-6.55,17.29-13.79,15.54a9.32,9.32,0,0,1-5.72-5.73c-.47-1.76,1.87-4.57,3.49-6.47,1-1.13,2.87-1.72,4.45-2C977.45,314.42,981.23,314.13,985.29,313.68Z"/><path class="cls-1" d="M455.22,482.43c.16,11.55-4.19,17.28-12.09,15.9-3.07-.54-5.57-4.32-8.34-6.63,2-2.26,3.62-5.57,6.13-6.55C445.16,483.5,450,483.34,455.22,482.43Z"/><path class="cls-1" d="M518.65,411.24c0,10.18-4.51,15.51-12.93,15.41-7.38-.09-12.5-6.45-12.41-15.43.09-9.38,5.6-15.69,13.54-15.51S518.69,400.86,518.65,411.24Z"/><path class="cls-1" d="M488.24,242.47c0-9.48,4.73-15.66,12.18-15.8,7.8-.16,13,5.81,13,14.94,0,10.12-4.62,16-12.64,16C493,257.52,488.27,251.84,488.24,242.47Z"/></svg>