<svg xmlns="http://www.w3.org/2000/svg" id="Layer_1" data-name="Layer 1" viewBox="0 0 1366 768">
    <defs>
        <style>
            .cls-1{fill:red;}
        </style>
    </defs>
    <title>
        eccc_logorrefArtboard 1
    </title>
    <path d="M2.81,210.59H48.87V331.12H2.81Z" class="cls-1"/>
    <path d="M232.68,330.59H172.89V211.68h59.79Z" class="cls-1"/>
    <path d="M155.76,254.34c-.84,6.61-1.56,12.25-2.28,17.89l2,.52c-3.84,3.62-7.39,7.63-11.58,10.79-5.64,4.24-11.45,8-7.16,17.21l-24.46-3.86v24l-3,0v-23.9l-23.61,3.93C88.28,284.7,71.27,283,68.39,272.4c-.83-5.57-1.66-11.13-2.61-17.45,5.58-.13,13.19,4.2,15.85-5.47l12.31,11.41,2.36-1.06c-1.48-8.34-3-16.67-4.65-26.14l9.38,4.49c3.21-5.62,6.3-11,9.7-16.94L120.14,238l9.44-3.63-4.41,25.35,2.44,1.12,12.24-11.31C142.56,259.71,150.17,254.92,155.76,254.34Z" class="cls-1"/>
    <path d="M862,500.43c-.56-1.65-1.54-3.28-1.59-4.95-.21-6.12-.26-12.25-.06-18.37.18-5.4-.93-9.28-7.43-9.51-6.79-.25-10.77,3.08-11.27,9.47-.59,7.57-.14,15.22-.14,22.83l-2.42.59c-.74-1.32-2.07-2.63-2.12-4-.23-6.4-.22-12.81-.08-19.21.12-5.21-.52-9.81-7.16-9.71-5.82.09-9.51,3.34-10,9.1s-.11,11.68-.33,17.52a37.51,37.51,0,0,1-1.2,6.13L815.7,500V466.9c3.34-.63,6.47-.64,9.07-1.82,6.4-2.89,10.23-2,15.93,4.72,4.92-4.73,10.43-9.11,17.36-4.55,2.91,1.92,6.13,5.61,6.46,8.79.9,8.49.31,17.14.31,25.73Z"/>
    <path d="M769.38,298.21c2.45-.83,4.21-1.86,5.92-1.8.75,0,2,2.31,2,3.56,0,10.56.12,21.13-.41,31.66-.33,6.68-3,13-10.27,14.26-8,1.41-16.28,1.3-20.25-8.54,5.9,1.93,11.53,4.91,17.35,5.37,6.63.53,9.34-5.12,8.86-15.31-4.2,1.23-8.58,3.77-12.63,3.33s-9.25-2.84-11.68-6.08c-6.51-8.7-4.47-20.11,3.57-26.85C758.08,292.6,763.55,293.24,769.38,298.21Zm-20,15.4c.08,8.55,4.95,14.44,11.7,14.16,7.3-.3,12-6.28,11.89-15.15-.09-8.1-5.27-14.14-12.09-14.11C753.23,298.55,749.24,303.79,749.33,313.61Z"/>
    <path d="M641.57,391.6c1.63,2.94,2.38,4.32,3.15,5.72,10.45-7.86,12.33-7.83,22.06.42,4.66-4.92,9.68-8.32,16.88-4.77,6.77,3.33,7.1,9.25,7,15.54-.06,5,.13,10-.08,15.05-.07,1.66-1.06,3.28-1.63,4.92l-3-.46c0-7.55-.29-15.12.1-22.65.31-6-1.2-9.66-8-9.74s-10.57,2.83-10.76,9.71c-.17,6.13,0,12.27-.17,18.4,0,1.79-.81,3.56-1.25,5.34l-3.4-.22c0-8,.23-16.05-.13-24.05-.12-2.74-1-7.06-2.77-7.76-3-1.2-7.48-1.21-10.2.31-2.28,1.27-3.79,5.35-4.12,8.36-.68,6.06-.23,12.24-.47,18.37-.07,1.65-.94,3.26-3.24,4.66Z"/>
    <path d="M507.23,504c6.14,6.5,12.39,11.89,19.84,6.46,3.44-2.5,4.48-8.31,5.62-13.29-7.63,3.06-14.18,5.45-21,.35-7-5.24-7.41-12.7-6.4-20.3,1.44-10.93,12.79-16.43,22.5-11.55,2.14,1.08,5,.66,8.34,1,0,12.09.88,25.55-.32,38.83-.77,8.53-8.23,11.43-19.85,9.66C510.65,514.35,507,511.72,507.23,504Zm25.06-21.74c.05-9.24-3.82-14.38-11-14.64-7.4-.27-12.23,5.48-12.27,14.59,0,9.41,4.35,14.79,12,14.66C527.74,496.75,532.25,490.91,532.29,482.24Z"/>
    <path d="M346.08,213.14v19.07h27l.23,3.53L346.44,237v18.72h30.05c-4.28,4.84-20.75,5.92-35.4,3.25V211.21h34l.2,1.93Z"/>
    <path d="M583.72,259.49c0-7.37,0-14.74,0-22.11,0-5.81-1.41-11-8.6-10.57-6.48.36-9.89,4.3-9.87,10.95,0,7,0,14.08,0,22.23-5.07-4.18-6.2-20.83-4-33.65,4-1,7.25-2.4,10.48-2.44,5-.06,10,.8,15.06,1.27-.08.82-.15,1.64-.23,2.46,3.16-1.53,6.18-3.57,9.51-4.49,6.43-1.78,12.89.2,13.83,6.84,1.36,9.66.35,19.66.35,29.52l-2,.43c-.56-1.7-1.54-3.39-1.6-5.11-.2-6.69-.06-13.38-.15-20.07-.07-4.82-2.12-8-7.4-8.15s-9.76,1.15-10.47,7.1c-.69,5.77-.56,11.65-.84,17.48-.14,2.82-.4,5.64-.61,8.45Z"/>
    <path d="M608,470c4.6-4.89,9.22-8.39,16.29-5.36,7.38,3.16,7.87,9.24,7.76,15.87-.08,5.3.12,10.6-.1,15.89-.06,1.4-1.22,2.74-1.87,4.11l-2.74-.49c0-7.27-.21-14.56.06-21.83.23-6.28-1.65-10.48-8.64-10.49-6.65,0-10.38,3-10.18,10.12q.25,8.79-.07,17.57c0,1.7-1,3.37-1.55,5.06l-3.09-.41c0-7.53-.09-15.06,0-22.59.08-5,0-9.86-6.44-10.6-6-.68-9.67,2.83-10.54,8.27-1.07,6.77-1.06,13.71-1.6,20.57a5.11,5.11,0,0,1-2.42,4.19V463.49l3.23,5.78C596.34,461.53,598.81,461.55,608,470Z"/>
    <path d="M436.52,331.15c0-7.76-.1-15.52,0-23.27.09-4.77-.36-9.24-6.09-10.14-5.94-.92-9.86,2.45-10.78,7.87-1.19,7-1.18,14.24-1.74,21.37a4.65,4.65,0,0,1-2.23,3.78V295.3L418.8,300c11.05-7.54,12.57-7.52,19.67-1.13,7.08-1.48,12.7-3.73,18.16-3.37,2.73.18,7,4.91,7.35,7.93,1,9.3.35,18.77.35,28.18l-3.3.14c-.35-2.9-.92-5.79-1-8.7-.16-5-.25-10,0-15.05.32-5.52-1.07-9.22-7.43-9.49-6.62-.28-10.84,2.38-11.25,9.22-.37,6.11,0,12.26-.24,18.39-.07,1.92-1,3.81-1.53,5.71Z"/>
    <path d="M969.4,469.32c1.55-1.75,2.76-3.11,5.33-6v51.22l-3.1.41c-.51-5.64-1-11.28-1.51-16.55-4.34,1.13-9.1,3.73-13.4,3.1a20.77,20.77,0,0,1-12.12-7c-5.51-6.82-3-21.94,3.39-27.49C954.07,461.7,960.91,462.48,969.4,469.32Zm1.2,15.18c.26-11.48-3.59-16.86-12.12-16.94-7.85-.07-12.46,5.47-12.59,15.11s4.21,15.76,11.5,15.94C965.61,498.82,970.4,493.7,970.6,484.5Z"/>
    <path d="M1265.62,501l-3.52-4.19c-10.45,6.66-18,6.82-24,.54s-6.63-19.28-1.47-26.36c6.25-8.55,12.81-9.42,24.94-3.07.49-5.5,1-10.87,1.46-16.25l2.56.13Zm-1.81-19.14c-2.44-4.27-4-9.81-7.63-12.42-2.84-2-8.77-1.68-12.46-.21-6.27,2.49-8,17.39-3.75,23.8,3.37,5,8.25,7.2,13.63,5.19C1260.29,495.7,1263,490,1263.81,481.84Z"/>
    <path d="M833.26,227c.62-5.34,1.25-10.65,1.91-16a9.72,9.72,0,0,1,1.88-.44v49.91c-1.48-2.81-2.22-4.22-2.95-5.63-9.47,7.21-17.64,8-23.69,2.16-6.64-6.35-7.59-20.27-1.89-27.59C814.89,221.22,821.44,220.57,833.26,227Zm-23.78,15.18c0,9.84,4.29,15.41,11.95,15.42s12.42-5.83,12.5-15.26c.08-10.37-4.27-15.77-12.63-15.67C813.28,226.73,809.5,231.68,809.48,242.14Z"/>
    <path d="M880.78,311.66c.68,10.16-3.18,16.69-10.74,19.91-8.15,3.47-18,1.25-24.38-5.53-9.68-10.2-8.45-32,2.54-40.65,6.61-5.19,14.22-6,22-2.93,6.23,2.48,10.3,6.92,10.74,15.43-11.87-15.08-24-21.75-35.57-1.63-5.87,10.21-1.58,25,7.88,30.84,5.68,3.52,12,4.06,16.94-.51C874.19,322.88,876.71,317.56,880.78,311.66Z"/>
    <path d="M625.67,297.94c-5.87-6.72-10.39-16.63-21.35-13.09a23.28,23.28,0,0,0-11.61,8.49c-7.13,10.88-2.65,29.08,7.62,34.47s17.53,1.1,25.06-14.68c3.06,7.06-2.31,16.64-10.75,19.19a22.52,22.52,0,0,1-29.23-21c-.62-17,4.12-26,15.61-29.53,9.38-2.87,18.77.25,24.15,8.34,1.21,1.82,1.5,4.26,2.21,6.41Z"/>
    <path d="M1116.08,482.13c2.46,8.37-3.59,17.14-13.4,19.46-13.31,3.15-26.19-6.62-28.1-21.31-2-15.84,7.38-29.26,21.25-30.25,11.48-.82,19.61,5.25,19.52,14.45-4.71-3.65-9-8.64-14.36-10.71-6.38-2.45-12.28,1.15-16.77,6.37-7.69,8.92-7.09,25.06,1.45,33.25,5.49,5.27,12.37,7.86,18.72,3.23C1109.24,493.08,1112.25,487.05,1116.08,482.13Z"/>
    <path d="M559.56,315.4H534.11l-1.94,2.19c2.56,3.64,4.34,8.6,7.84,10.65,9,5.26,13.54-2.8,18.78-9,.45,9.13-4.4,13.5-13.78,13.54-10.86,0-16.91-7.38-16.44-20.19.38-10.35,8.25-18.85,16.79-18.15C555.51,295.28,560.85,302.79,559.56,315.4Zm-26.25-4.56H555.9c-.47-7.13-3.37-11.76-10.29-12.22C537.87,298.1,534.28,302.69,533.31,310.84Z"/>
    <path d="M385.43,465.66c-10.65-12.39-20-14.92-28.94-8.47-7.44,5.38-11,25.3-4.3,32.88,15.52,17.66,25.9,7.82,34.32-10.38.83,14.11-6.11,21.73-17.7,22.18-13.79.55-24-9.81-24.42-24.81-.45-15.21,9.1-26.81,22.29-27.07C378.23,449.77,385.51,455.44,385.43,465.66Z"/>
    <path d="M605.84,414.84c2.61,3.63,4.46,8.53,8,10.65,8.49,5.11,13.15-3.2,19.15-8-1.58,9.95-7,13.56-17.14,12.35-8.64-1-14.1-9-13.57-19.84.51-10.32,8-18.65,16.63-18.5,9,.16,14.68,7.23,15.64,20.56H607.78Zm1-7h24.81c-3.15-6.58-5.51-11.87-12.94-12S608.2,400.21,606.85,407.8Z"/>
    <path d="M640.78,486.73c2.4,3.5,4,8.18,7.34,10.28,9.24,5.89,14.07-2.21,19.7-9-1.1,11.1-5.7,14.69-16,13.89-9.63-.75-15.29-8.81-14.44-20.56.72-10.11,8.65-18.35,17.13-17.81,9.33.61,14.81,8.26,14,20.88h-26Zm1.43-6.33h21.7c-.09-8.12-3.35-12.34-9.29-12.82C648.11,467.06,643.26,471.51,642.21,480.4Z"/>
    <path d="M575.05,484.37H549.54l-2.1,2c2.19,3.5,3.62,8,6.71,10.31,8.85,6.53,14-2.22,20.67-7.47-2.88,10.64-9.27,14.48-18.79,12.49-8.14-1.7-13.7-11.56-12.3-21.78,1.35-9.79,9.39-17.24,17.68-16.38C570.58,464.52,575.45,471.65,575.05,484.37Zm-3.91-4.4c-.89-8-4.15-12.49-11.65-12.3s-10.38,4.93-10.88,12.3Z"/>
    <path d="M649.59,243.62H621.66c1.69,7.45,3.65,14.05,11,13.53,5.32-.37,10.39-4.37,15.16-6.56,0,5.72-4.1,9.78-11.46,10.21-9.76.57-16.29-3.7-17.37-11.62-.37-2.74.23-5.62-.18-8.35a16,16,0,0,1,15.76-18.41C643.69,222.67,650.09,231.17,649.59,243.62Zm-4.1-4.66c-.73-7.24-3.23-12.33-11-12.29s-10.71,5.2-12.19,12.29Z"/>
    <path d="M380.17,298.11c-5.48-9.07-11.39-15.33-21-13.67a18.51,18.51,0,0,0-9.07,5c-7.71,7.55-9.24,25.42-1.5,33.09,15.64,15.49,25,4.77,32.61-12.75,1.2,16.4-11.93,26.28-25.34,22.56-11.29-3.13-18.88-18.08-16.25-32,2.24-11.85,13.44-20.49,25.12-19.38A17,17,0,0,1,380.17,298.11Z"/>
    <path d="M1028.25,331.05c-.48-1.41-1-2.82-1.46-4.23-10.42,7.52-18.49,8.05-24.32,1.62-6.59-7.27-7-20.57-.76-27.7,6.87-7.91,13.83-8.11,25.64,0,0-3.53,0-6.43,0-9.33s.24-5.67.37-8.51l2,.05v47.64Zm-26.2-16.75c.07,9.69,4.68,15.4,12.31,15.24,7.41-.16,12.23-6.27,12.32-15.62.1-9.93-4.78-15.69-13.08-15.43C1005.7,298.73,1002,303.84,1002.05,314.3Z"/>
    <path d="M673.25,307.25c.44-8.37,4.72-12.38,12.61-12.82,8.06-.45,14,3.92,14.65,11.36.43,4.69-.14,9.46.2,14.16.25,3.46,1.25,6.87,2,10.81-.94-.06-3.6.53-4.36-.41-2.56-3.17-3.91-1.12-6.55-.06-4.12,1.65-9.44,2.91-13.35,1.62-3.2-1.05-7.05-6.08-7-9.33s3.89-7.5,7.17-9.42,8.18-1,12-2.4c2.21-.82,5-3.78,5-5.75s-2.74-5.14-4.94-5.92C684.73,297,682.66,298.29,673.25,307.25Zm22,6.37c-4.34.3-8.78.13-13,1.05s-8.49,3.65-6.45,8.6c1.13,2.74,5.18,5.67,8.18,6C692.3,330.1,696.46,323.75,695.3,313.62Z"/>
    <path d="M503.8,331.65c-5.95-3.91-10.93-1.23-16.56.72-7.37,2.54-14.25-1.46-15.55-7.16-1.52-6.66,2.38-11.46,11.23-13.47,2.42-.55,5.26.12,7.38-.88,2.39-1.12,5.92-3.58,5.84-5.31-.12-2.29-3.47-6.45-5-6.28-5.86.66-11.55,2.76-17.49,4.37.06-6.36,6.51-7.85,12.4-9.08,6.83-1.41,13.56,2.92,14.45,9.29.77,5.47.15,11.12.63,16.65C501.37,323.74,502.6,326.89,503.8,331.65Zm-7.89-18.4c-5.7,1-11,1.25-15.76,3-2,.71-4.32,5-3.79,6.85.72,2.53,3.77,5.63,6.32,6.19C490.89,331.06,496.89,324,495.91,313.25Z"/>
    <path d="M1305.54,500.3,1299,498c-5,1.27-10.36,4-15.29,3.39-3.61-.42-8.09-4.55-9.69-8.13-2.26-5.07,1.56-9.07,6.51-10.72,3.89-1.29,8.25-1.2,12.1-2.57,2.31-.82,5.83-3.51,5.64-4.93-.34-2.52-2.68-6.09-4.93-6.77-5.14-1.56-10.59-1.45-13.45,4.85-.51,1.11-2,1.77-3.6,3.09.35-8.54,4.27-12.27,12.26-12.69s13.91,3.66,14.61,10.51c.51,5-.07,10,.28,15C1303.7,492.52,1304.7,496,1305.54,500.3Zm-7.24-18.08c-5.69,1.12-11,1.52-15.67,3.39-2,.81-4.43,5.12-3.86,7,.72,2.43,4,5.27,6.62,5.74C1293.7,499.86,1298.75,493.81,1298.3,482.22Z"/>
    <path d="M814,315.66H787.83l-2,2.19c2.83,3.81,4.88,9.46,8.65,11,7.09,3,13.25-.55,17.68-7.25-.42,6-3.5,9.92-9.39,11-14.28,2.6-23.76-10.11-19.34-25.6,2.52-8.8,10.09-14,18.07-12.41C809.11,296.12,814.68,304.91,814,315.66Zm-4.6-4.77c-.71-8.84-4.37-13-11.2-12.33-7,.68-10.79,4.6-10.35,12.33Z"/>
    <path d="M1198.64,477.2c1.89-10.56,6.33-14.05,15.12-13.71,7.52.28,12.24,4.8,12.66,12.56.28,5-.18,10,.17,15,.19,2.71,1.39,5.34,2.45,9.18l-6.62-2.19c-5.46,1.36-10.29,3.23-15.24,3.62-5.72.45-10.14-3.31-10-8.76.11-3.52,3.23-8,6.31-10.06s8.07-1.41,11.85-2.89c2.47-1,6.07-3.76,5.95-5.5-.17-2.32-3.13-5.72-5.49-6.34-5.25-1.37-10.63-.88-13,5.64C1202.46,474.73,1201,475.29,1198.64,477.2Zm22.26,5.38c-4.8.84-9.86,1-14.26,2.78-2.33.94-5.05,4.88-4.79,7.15s3.81,5.37,6.34,5.85C1217.55,500.16,1222.5,494,1220.9,482.58Z"/>
    <path d="M734.58,234c.85-8.81,5.51-12.25,14-11.46,7.4.69,11.75,4.62,12.06,12.25.2,5-.22,10,.13,15,.2,2.72,1.41,5.37,2.38,8.87.48-.63,0,.16-.1.11-6-2.84-11.06.24-16.64,1.71-5.77,1.53-12.15.75-14.69-6.09-1.75-4.7-1.22-9.77,4.38-11.84,4.56-1.68,9.56-2.18,14.24-3.6,2.08-.63,5.52-2.37,5.44-3.4-.19-2.69-1.85-7.41-3.16-7.49-4.86-.31-9.88.66-14.7,1.76C736.53,230.16,735.67,232.57,734.58,234Zm20.93,7.37c-5.41.92-10.49,1.07-15,2.82-2.21.87-4.83,5-4.43,7.06.44,2.4,3.75,5.51,6.3,6.06C750.81,259.12,756.54,252.37,755.51,241.38Z"/>
    <path d="M1070,331.54l-6.46-2.58c-5.79,1.37-11.12,4-16,3.33-3.52-.48-8.62-5.07-9-8.33s3.25-8.37,6.52-10.65c3.07-2.13,8.14-1.12,12-2.46,2.26-.79,5.33-3.44,5.38-5.31,0-2.15-2.44-5.66-4.53-6.32-7.29-2.29-13.27.11-16.41,10.5-1.53-9.9,2.15-14.13,9.83-15.18,8.81-1.21,15.36,3.27,16.06,11.49.45,5.25-.13,10.59.2,15.85C1067.73,324.57,1068.88,327.19,1070,331.54Zm-8-18.42c-5,1-10.33,1.31-14.92,3.28-2.23,1-4.64,5.34-4.17,7.59s4.27,5,6.91,5.32C1059.24,330.58,1063.57,324.64,1062,313.12Z"/>
    <path d="M1049.86,484.73h-27.08l-1.61,2.08c2.75,3.75,4.71,9.07,8.4,10.92,7.93,4,13.82-1,18.55-9.41-.12,9.61-5.18,13.71-14.17,13.55-10.64-.18-15.56-7.46-15-22.14.38-9.34,7.46-17.07,15.45-16.13C1044.39,464.77,1051.23,471.93,1049.86,484.73Zm-4.08-4.76c-.54-7.1-3.14-11.73-10.17-12.21-8.2-.57-11.27,4.83-13.36,12.21Z"/>
    <path d="M727.75,417.84c-3.68,11.17-11,14.87-20.25,11.59-6.94-2.47-11.64-13.81-9.76-23.6,1.48-7.73,10.37-15.11,17.15-14.23,8,1,14.17,9.61,14,20.68H702.83l-1.89,2.2c2.21,3.51,3.65,8.15,6.8,10.33C716.53,430.91,722,423.81,727.75,417.84Zm-3.49-9.7c-.59-8.86-4.61-12.88-11.62-12.44-6.44.41-10,4.95-9.45,12.44Z"/>
    <path d="M903.73,500.43c-6.54-6-12.21,1.26-18.85,1.48s-11.85-1.39-13-8.69c-1.18-7.56,3.77-10.24,10.1-11.42,3.23-.6,6.66-.65,9.63-1.86,2.06-.84,4.93-3.29,4.85-4.9-.11-2.34-2.09-5.93-4.08-6.6-7.17-2.39-13.45-.55-17.72,6.59-.15-7.86,4.8-10.6,11.21-11.46,8.14-1.08,14.4,3.1,15.35,10.47.63,4.94,0,10,.34,15C901.82,492.53,902.84,495.94,903.73,500.43Zm-7.47-18.62c-5,1.1-9.78,1.41-13.84,3.34-2.57,1.22-4,4.86-5.92,7.41,2.8,2,5.44,5.47,8.42,5.78C893,499.18,897.24,492.84,896.26,481.81Z"/>
    <path d="M1155.14,500.51c-2.91-1.09-5.86-3.22-8.55-2.93-3.3.36-6.23,3.46-9.58,4.11-6.79,1.33-12.44-.95-13.87-8.35s3.38-10.6,9.73-12c3-.64,6.14-.42,9-1.35,2.23-.73,6-3.05,5.76-3.93-.65-2.83-2.3-7-4.45-7.62-5.12-1.54-11.11-2.59-14.28,4.24-.49,1.07-1.83,1.74-3.22,3,.57-8.33,4.35-11.78,12.47-12.19s13.77,3.89,14.42,11.58c.45,5.25-.1,10.57.22,15.83C1152.93,493.59,1154,496.22,1155.14,500.51ZM1147.25,483c-4.7.22-9-.1-13,.76-4.24.91-8.44,3.67-6.35,8.61,1.15,2.73,5.15,5.62,8.13,5.94C1144.09,499.15,1148.38,493,1147.25,483Z"/>
    <path d="M890.1,306.23c1.89-9.52,8.23-13.45,16.59-11.56,7.83,1.76,10.15,7.48,10.15,14.95,0,6.81.63,13.61,1,21.08L913.31,329c-6.43,1.42-11.8,4-16.66,3.22-3.54-.55-8.18-5.06-9-8.57-.64-2.79,3.07-7.79,6.16-9.89s8.08-1.44,11.86-2.93c2.46-1,6-3.7,5.94-5.46-.14-2.31-3-5.66-5.41-6.37-4.93-1.48-10-.83-12.91,4.66C892.72,304.79,891.19,305.4,890.1,306.23Zm21.22,6.93c-5.05,1-10.32,1.41-15,3.26-2.11.82-4.66,4.87-4.21,6.79a9.74,9.74,0,0,0,6.25,6C907.93,331.19,912.88,324.88,911.32,313.16Z"/>
    <path d="M638.56,332.42c-5.2-5.43-5.24-45.43-.13-50.4v19.05c2.46-1.78,3.71-2.64,4.92-3.56,8.47-6.43,19-2.21,20.56,8.28a43.66,43.66,0,0,1,.13,5.84q0,9.56,0,19.1l-2.11.72c-.83-1.44-2.31-2.86-2.37-4.34-.28-6.4-.32-12.82-.1-19.22.18-5.55-1.48-9.23-7.67-9.38-5.79-.13-10.87,1.26-11.52,8-.69,7.18-.64,14.42-1,21.63A40,40,0,0,1,638.56,332.42Z"/>
    <path d="M842.48,420.5c-3.37,3-6.44,8-10.2,8.58-5.22.82-11.94-.17-16.25-3-6.83-4.54-6.25-20.86-1.22-27.35,7.83-10.11,22.31-8.8,26.91,6,.64,2,.77,4.25,1.4,8H815.4l-1.9,2.2c2.92,3.8,5.08,9.24,8.94,11,7.59,3.55,13.34-1.29,17.25-8.61Zm-28.39-12.68h24.48c-1.81-7.22-4.85-12.12-12.24-12S816.41,401.22,814.09,407.82Z"/>
    <path d="M991.51,331.08l-4.6-3.09c-4.7,1.65-9.08,3.91-13.68,4.6-5.19.77-10.13-.47-11.15-7.15s1.07-11.5,8.19-13c3-.63,6.25-.4,9-1.55,2.54-1.08,4.52-3.47,6.74-5.29-2.17-2.31-4.55-6.71-6.48-6.52-5,.49-9.91,3-15.72,5,1-1.86,2-6.37,3.87-6.74,5.62-1.13,12.07-2.07,17.2-.25,2.9,1,4.77,7.45,5.44,11.71C991.4,315.73,991.14,322.9,991.51,331.08Zm-6.22-17.4c-4.06.45-7.84.74-11.57,1.36-1.58.26-3.5.85-4.45,2-1.62,1.9-4,4.71-3.49,6.47a9.32,9.32,0,0,0,5.72,5.73C978.74,331,988.75,325.85,985.29,313.68Z"/>
    <path d="M460.48,500.05l-3.9-2.09c-5.2,1.41-10,4-14.36,3.5-3.81-.46-8.7-3.72-10.41-7.11-2.52-5,.74-9.86,5.82-12,3.45-1.47,7.72-1,11.24-2.38,2.52-1,4.41-3.6,6.58-5.48-2-2.19-3.6-5.51-6.05-6.34-6.57-2.24-11.57.8-14.51,7.62L432.64,474c1.45-2.61,2.49-7,4.44-7.47,5.6-1.27,12.14-2.48,17.18-.64,3,1.08,4.7,7.89,5.36,12.36C460.63,485.13,460.25,492.25,460.48,500.05Zm-5.26-17.62c-5.25.91-10.06,1.07-14.3,2.72-2.51,1-4.11,4.29-6.13,6.55,2.77,2.31,5.27,6.09,8.34,6.63C451,499.71,455.38,494,455.22,482.43Z"/>
    <path d="M351.36,382v19.8h27.35l0,2.48H351.58v20.92h29.14v2.14H348.15V380.13H380.6l.18,1.85Z"/>
    <path d="M395.22,499.88v-47.8l2.63-.34c.71,5.19,1.41,10.38,2.18,16a68.67,68.67,0,0,1,6.81-3.42c8.29-3.16,16,1.91,16.11,10.67.14,8.26,0,16.53,0,24.8l-2.59.22c-.23-2.62-.61-5.24-.67-7.87-.11-4.74-.29-9.5,0-14.22.44-6.61-2.62-10.16-9-10.37s-10.7,3.18-11.3,9.71c-.51,5.54-.07,11.16-.24,16.73a45.58,45.58,0,0,1-1,6.29Z"/>
    <path d="M656.33,258.84V226.05c3.89-.8,7.36-1,10.4-2.24,8.47-3.43,16.38-.18,17.62,8.67,1.15,8.18.7,16.58.74,24.88,0,.87-1.51,1.74-4.24,4.67,0-9.49-.05-16.49,0-23.5,0-6.41-1.17-11.74-9.19-11.9-7-.13-11.07,4.18-11.22,12.33-.1,5.28.15,10.57-.11,15.83-.07,1.59-1.35,3.12-2.07,4.67Z"/>
    <path d="M493.41,500c0-7-.21-14,.07-21,.26-6.47-1.46-11-8.81-11.32s-10.83,4.14-11.35,10.64c-.58,7.12-.13,14.33-.13,21.91-5.28-2.28-6.57-16.92-4.18-33.29,4-.68,7.71-.81,11.05-2,9.57-3.3,17,.7,17.8,10.68.64,8.17.13,16.43.13,24.65Z"/>
    <path d="M490,410.92c0-10.62,7.24-19.23,16.24-19.39,9.39-.17,17.34,9,17.13,19.75-.24,11.79-6.79,18.74-17.56,18.59C495.31,429.73,489.94,423.29,490,410.92Zm28.68.32c0-10.38-3.74-15.35-11.8-15.53s-13.45,6.13-13.54,15.51c-.09,9,5,15.34,12.41,15.43C514.14,426.75,518.61,421.42,518.65,411.24Z"/>
    <path d="M516.75,242.38c0,11.79-5.51,18.36-15.42,18.43-10.66.07-16.4-6.63-16.38-19.12s6.23-19.52,16.63-19.19C511.31,222.8,516.77,230,516.75,242.38Zm-28.51.09c0,9.37,4.75,15,12.57,15.1,8,0,12.68-5.84,12.64-16,0-9.13-5.23-15.1-13-14.94C493,226.81,488.21,233,488.24,242.47Z"/>
    <path d="M388.66,395.08c3.75-.73,6.74-.77,9.23-1.9,9.36-4.27,18,0,18.73,10.16.59,8.4.12,16.88.12,25.32l-2.43.44c-.65-1.41-1.83-2.8-1.88-4.24-.21-6.4,0-12.81-.15-19.22-.09-5.5-1.48-10-8.35-9.93-6.55.06-10.74,3.13-11.33,9.68-.53,5.81-.07,11.69-.32,17.54-.08,2.07-.95,4.11-1.46,6.16l-2.16-.35Z"/>
    <path d="M554.74,428.81c0-7.83.15-15.67,0-23.5-.14-5.52-1.94-9.81-8.73-9.62-6.18.17-10.27,3-10.93,9.16-.61,5.79-.15,11.69-.39,17.53a33.29,33.29,0,0,1-1.3,6L531,428V395c3.7-.86,7.52-1.56,11.24-2.64,6.3-1.82,13.47-1,14.91,5.06,2.38,10.06,1.9,20.79,2.63,31.24Z"/>
    <path d="M567.2,428.71V391.09l4.16,6.39c5.65-5.14,11.9-9.1,19-3.22a14.5,14.5,0,0,1,4.74,9.14c.66,8.39.22,16.87.22,25.31l-2.75.43c-.6-1.94-1.63-3.85-1.7-5.81-.22-5.84-.1-11.71,0-17.56.06-5.36-1.62-9.44-7.64-10-6.37-.55-11.2,1.67-11.82,8.67-.56,6.36-.33,12.79-.6,19.18a34.15,34.15,0,0,1-1,5.2Z"/>
    <path d="M950.35,330.76c0-6.67,0-13.33,0-20,0-6.3-.89-11.89-8.89-12.27-7.05-.34-11.36,4.13-11.61,12.12-.17,5.29,0,10.59-.13,15.87a28.84,28.84,0,0,1-1.26,5.47l-2.27-.25V297.86c3.57-.86,7.44-1.45,11.06-2.73,8.13-2.86,16.18,2.14,16.37,10.65.18,8.31,0,16.64,0,25Z"/>
    <path d="M794.57,259.23a32.84,32.84,0,0,1-1.08-5.54q-.25-8.77-.11-17.55c.08-5.3-1-9.37-7.55-9.46-5.83-.08-10.81,1.1-11.62,7.86-.66,5.49-.56,11.07-.82,16.61-.13,2.85-.33,5.7-2.31,8.5-2.81-11.76-2.46-23.52-2.09-35.28l2.1-.54,2.81,4.64c4.86-4.46,9.84-8,17-4.56,6.87,3.31,7.18,9.16,7.08,15.48-.1,6.5,0,13,0,19.49Z"/>
    <path d="M737,391.6c1.65,3,2.41,4.36,3.39,6.11,4.89-5.32,10.62-8.67,17.52-4.36,2.59,1.62,5.72,4.74,5.93,7.39a105.92,105.92,0,0,1-1.62,28.51c-.79-1.28-2.23-2.54-2.28-3.85-.26-6.11-.29-12.24-.1-18.35.2-6.32-1.25-11.1-8.76-11.36-6.58-.23-11.27,4.08-11.58,11.25-.3,6.95-.06,13.93-.06,20.9l-2.44,0Z"/>
    <path d="M1012.3,465.46v33.36c-3.28.46-6.27.17-8.54,1.3-10.23,5.13-19.55.2-19.88-11-.21-7.24,0-14.49.08-21.73,0-.69.58-1.38,1.61-3.7,1.28,2.51,2.52,3.85,2.57,5.23.24,6.4.16,12.82.18,19.23,0,5.05.79,9.59,7,10.4s10.71-1.72,11.86-7.69c1.25-6.45,1.16-13.14,1.74-19.72.17-2,.6-3.94.91-5.91Z"/>
    <path d="M1186.38,499.82c0-6.57-.06-13.14,0-19.7s-1.08-12.35-9.51-12.54c-6.91-.15-11,4.19-11.35,12.5-.24,5.28,0,10.58-.2,15.87-.06,1.64-.81,3.26-3.09,4.69v-37l3.12,5.64c2.49-1.58,4.87-3.53,7.59-4.74,6.69-3,15.27.2,16,6.85,1,9.38.26,19,.26,28.45Z"/>
    <path d="M780.92,476c-9.44-9.52-14.42-10.81-20.14-5.21-6.44,6.29-6.51,18.32-.16,24.74,5.93,6,10.66,4.5,21.1-6.7.42,7.08-3.2,11.86-10,12.93-7.72,1.2-13.55-2.06-17.6-8.39-3.22-5.05-1.56-20.27,2.56-24.41,5.37-5.39,12-7.4,18.73-3.53,3.36,1.92,5.52,5.94,8.22,9Z"/>
    <path d="M548.56,258.82c0-6.37,0-12.73,0-19.1s-.23-12.58-8.91-13c-7.07-.36-12.4,5-12.83,13.21-.33,6.07-.41,12.16-.62,18.24,0,.2-.31.39-1.62,1.94v-36.3l3.07,4.07c2.62-1.29,5.54-3.13,8.72-4.22,8.57-3,15.11,1.3,15.45,10.19.3,8.31.06,16.64.06,24.95Z"/>
    <path d="M381.74,258.74V222.45l3.55,5.57c3-1.69,6.11-4.36,9.68-5.26,6.62-1.66,12.82,1.86,13.81,7.74,1.53,9.19.4,18.83.4,28.28l-2.91,0c0-6.35,0-12.71,0-19.07s-.27-12.58-8.87-13.12c-7.92-.5-12.33,3.65-12.83,12.71-.35,6.46-.07,12.95-.07,19.43Z"/>
    <path d="M734.39,330.73c0-6.9-.06-13.8,0-20.7.08-6.7-2.1-11.4-9.71-11.56s-11.11,4.06-11.27,11.29c-.15,7,0,14,0,21h-3.13V294.94l3.15,5.1c2.77-1.65,5.63-4,8.91-5.18,5.65-2,14,1.79,14.66,7.61,1,9.34.27,18.87.27,28.31Z"/>
    <path d="M700.91,499.87c0-6.66-.1-13.33,0-20,.12-6.89-1.67-12.09-9.82-12.34-7.17-.22-10.91,3.64-11.35,12.22-.25,4.72.06,9.47-.09,14.19a54.28,54.28,0,0,1-1,6.54l-2.4-.15V465l4.52,3.28c0-.84,0-1.68,0-2.52,5.55-.22,11.5-1.81,16.56-.33,6.95,2,7,9,6.91,15.33s0,12.76,0,19.13Z"/>
    <path d="M418.14,223.48c4,10,7.92,19.93,12.47,31.4,4.28-11,8.11-20.92,11.95-30.79l2.07.55c-.89,3.62-1.49,7.34-2.72,10.83-2.2,6.23-4.6,12.4-7.27,18.44-.87,2-2.82,3.45-4.27,5.15-1.4-1.51-3.36-2.79-4.09-4.58-3.95-9.68-7.59-19.5-11.34-29.26Z"/>
    <path d="M437.71,423.88l11.91-31.29,2.88,1.09c-1.24,3.61-2.44,7.23-3.75,10.82-2.46,6.73-4.85,13.49-7.6,20.09a7.09,7.09,0,0,1-4,3.36c-.63.21-2.51-1.74-3.05-3a275.7,275.7,0,0,1-11.39-31.44C431.18,401.43,431.48,413.42,437.71,423.88Z"/>
    <path d="M511.8,300.14l-8.65-2.35,8.22-2.51c.35-3.23.71-6.6,1.08-10l2.34-.27c.77,3.05,1.54,6.09,2.55,10.12l7.73,2.4-8.64,2.76c0,5.4-.13,11.19,0,17,.15,5.07-2.32,11.67,8.69,11.61-11.41,3.67-13.27,2.39-13.35-7.06C511.75,314.88,511.8,307.93,511.8,300.14Z"/>
    <path d="M696,228.2l-8.46-2.47,8-2.45c.34-3,.66-6,1-9l2.39-.6,2.75,9.76,8,1.81-9.09,3.1c0,5.74,0,11.82,0,17.89,0,8.42,0,8.42,6.45,11.51-9.4,2.63-11,1.46-11.07-8.17C696,242.68,696,235.74,696,228.2Z"/>
    <path d="M917,469.31v26.61l7.4,2.72c-10.55,2.64-12.17,1.55-12.34-7.41-.1-5.27.45-10.61-.19-15.8-.38-3.09-2.51-6-3.81-8.85,1.7-3.08,4-7.27,7.58-13.73.68,5,1.08,7.89,1.56,11.42l8.38,2.3Z"/>
    <path d="M471.88,392.91l3.16,4,12-5.24c.36.93.71,1.87,1.06,2.8a13.82,13.82,0,0,1-3.14,1.72c-7.21,1.83-10.4,6.42-10.35,13.81.05,6.32-.42,12.64-.66,19l-4-.2V393.84Z"/>
    <path d="M789.67,501.94c0-15.63,0-29.17,0-42.71,0-2.41.25-4.82.4-7.54C795.55,454.88,796.18,494.72,789.67,501.94Z"/>
    <path d="M716,469.14l-8.59-1.95,8.17-3.06c.32-2.91.65-5.85,1-8.8l2.06-.25c.33,2.88.66,5.75,1.07,9.27l7.26,1.51c.06.48.11,1,.16,1.43l-7.78,1.86c0,5.93.26,12-.07,18.11-.32,5.74-.21,10.77,8.91,10.47-9.42,4.1-12,2.74-12.14-5.13C715.88,485.09,716,477.57,716,469.14Z"/>
    <path d="M467.56,224.29l1,4.73,14.06-7.82c-.42,3.55-.32,4.44-.57,4.55-13,5.72-12.92,5.72-12.81,21,0,4.34-.34,8.69-.53,13l-2.91-.15V224.48Z"/>
    <path d="M861.35,395.65l-7,1.62c4.21,9.64-6.65,22.41,7.53,29.66-9.08,2.45-10.24,1.61-10.29-7.79,0-7.21,0-14.43,0-21.78l-6.71-2,.06-1.44,6.1-1.45c.42-3,.86-6.05,1.4-9.87,5.28,3-2.71,14.79,12.24,9.15Z"/>
    <path d="M776.24,397.24l-6.54-1.71c0-.5,0-1,0-1.49l6-1.62c.4-3,.82-6.06,1.24-9.15l1.88-.12c.39,3,.79,5.93,1.24,9.28l8.36,1.93-8.57,2.94v26.85l7.27,2.27c-9.38,2.75-10.74,2-10.86-5.55C776.14,413.13,776.24,405.38,776.24,397.24Z"/>
    <path d="M932.78,499.92c-3.78-11.26-1.78-22.86-2.39-35.06C935.54,467.87,936.91,487,932.78,499.92Z"/>
    <path d="M405.6,295.13v36C400.16,327.67,399.73,301.06,405.6,295.13Z"/>
    <path d="M462.14,430.5c-5.55-5.55-6.34-29.39-2.08-37.25C463.24,404.79,461.2,416.61,462.14,430.5Z"/>
    <ellipse cx="390.89" cy="306.85" rx="1.07" ry="33.72"/>
    <path d="M454.06,224.48v34.24l-1.65,0V224.5Z"/>
    <path d="M803.58,499.79V465.47l1.67,0v34.33Z"/>
</svg>
