<svg xmlns="http://www.w3.org/2000/svg" viewBox="0 0 1366 768">
    <defs>
        <style>
            .cls-1{fill:#00929d;}.cls-2{fill:#00a99d;}
        </style>
    </defs>
    <title>
        montainsback
    </title>
    <g id="cover">
        <g id="Layer_10" data-name="Layer 10">
            <path d="M1366,380a1036.1,1036.1,0,0,0-129-133c-60.14-51.73-101.59-86.57-167-103-24.69-6.2-60.27-15.14-103-6-61.38,13.12-91.13,53.62-149,107-30.74,28.36-74.83,59.57-163,122C471.16,497.16,417.17,483.41,352,567c-29.48,37.81-64.72,100-76,201H1366Z" class="cls-1"/>
        </g>
        <path id="mountain1" d="M-.5,449.5c64.8-59.91,116.21-109.23,151-143,58.11-56.41,74.22-73.72,111-101a742.38,742.38,0,0,1,143-83c39.49-17.39,59.23-26.08,72-27,81.15-5.83,112,93.68,248,204,91.37,74.14,108.85,54.7,200,137,96.69,87.31,126.19,153.58,135,175,25.94,63.06,30.2,120.41,30,157H-.5Z" class="cls-2"/>
    </g>
</svg>
