<svg xmlns="http://www.w3.org/2000/svg" viewBox="0 0 1361 768">
    <defs>
        <style>
            .cls-1{fill:#e6e6e6;}
        </style>
    </defs>
    <title>
        rocks
    </title>
    <g id="rocks">
        <path d="M0,679c15.49-13.86,40.89-32.14,74-35,44-3.8,59.84,23.26,118,37,41.66,9.84,74.62,5.66,135-2,77.8-9.87,81.94-24.37,126-20,53.33,5.3,54.26,27.24,108,32,15.22,1.35,17.57-.2,121-18,72-12.39,86.84-14.4,110-12,38.16,4,42.7,14,79,20,44.61,7.34,53.06-5.36,131-14,49.28-5.46,105.37-11.22,171,4,27.13,6.29,27.46,9.58,51,14,55.63,10.46,104,1.57,137-8v91H1Z" class="cls-1"/>
    </g>
</svg>
