<svg xmlns="http://www.w3.org/2000/svg" viewBox="0 0 1366 768">
    <defs>
        <style>
            .cls-1{fill:#acb3e2;}.cls-2{fill:#c69c6d;}.cls-3{fill:#f14b24;}.cls-4{fill:#245cbc;}.cls-5{fill:#0071bc;}.cls-6{fill:#f15a24;}.cls-7{fill:#f16e24;}.cls-8{fill:#a67c52;}.cls-9{fill:#754c24;}.cls-10{fill:#c1272d;}.cls-11{fill:#ccc;}.cls-12{fill:#333;}.cls-13{fill:#506666;}.cls-14{fill:#666;}.cls-15{fill:#873600;}.cls-16{fill:#229373;}.cls-17{fill:#643100;}.cls-18{fill:#22a073;}.cls-19{fill:#f2f2f2;stroke:#ccc;stroke-width:2px;}.cls-19,.cls-21,.cls-24,.cls-25,.cls-26{stroke-miterlimit:10;}.cls-20{fill:#22a973;}.cls-21,.cls-24,.cls-25,.cls-26{fill:none;}.cls-21,.cls-24{stroke:#999;}.cls-22{fill:#6c3600;}.cls-23{fill:#37210b;}.cls-24,.cls-25,.cls-26{stroke-linecap:round;}.cls-25,.cls-26{stroke:#42210b;}.cls-25{stroke-width:0.5px;}.cls-26{stroke-width:0.75px;}
        </style>
    </defs>
    <title>
        timelineuserinterviews
    </title>
    <g id="Layer_28" data-name="Layer 28">
        <path d="M558,614c298.54,3.12,426.26,2.36,427,18,.52,11-62.62,16.14-63,34-.55,25.61,128.79,38.66,128,55s-131.89,5.59-333,28c-89.72,10-185.84,25.78-300-12-4.73-1.57-69.39-23.3-67-39,3.52-23.07,149.06-14.62,151-34,1.31-13.1-64.32-25.52-63-37C439.64,612.76,542.79,613.84,558,614Z" class="cls-1"/>
    </g>
    <g id="woman">
        <g id="pants">
            <g id="Layer_13" data-name="Layer 13">
                <path d="M537.55,661.17c3.29,5.45-2.2,9.13-3.68,27.17-.38,4.58-.23,6.94-2.15,8.6-4.28,3.69-15.27.79-18-5.41-1.13-2.51-.58-4.82.08-7.89,4.66-21.82,2.72-25.57,6.71-27.75C525.47,653.18,534.35,655.89,537.55,661.17Z" class="cls-2"/>
                <path d="M567,647.13c5.24,3.63,1.72,9.23,7.75,26.3,1.53,4.34,2.62,6.43,1.55,8.73-2.4,5.12-13.61,7-18.68,2.44-2.05-1.83-2.5-4.17-3.15-7.24-4.67-21.81-8-24.45-5.21-28.07C552.66,644.77,561.87,643.61,567,647.13Z" class="cls-2"/>
            </g>
            <ellipse cx="622.8" cy="402.09" class="cls-2" rx="13.8" ry="27.97" transform="translate(-67.87 132.77) rotate(-11.54)"/>
            <g id="leftarm">
                <path d="M565.22,200c7-3.41,21.93,7.67,27.42,21.54,3.18,8,2.21,14.52,2,20.56-.57,13.74,4.18,26.64,13.71,51.9,22.75,60.3,39,72.74,31.33,88.12-6.35,12.76-25.29,19.81-34.27,14.69-7-4-6.77-14.72-7.84-26.44C594.76,340,587,345.22,565.22,266.6c0,0-5.07-18.29-4.89-44.06C560.46,203.61,563.4,200.91,565.22,200Z" class="cls-3"/>
            </g>
            <g id="bottom">
                <path d="M569.14,330.25c-6.62-3.6-13.44,6-30.35,10.77-28.49,8-43.42-9.79-56.8-2-17.63,10.32-11,52.56-6.85,79.31C482.2,463.57,493,472,505.49,529c2.17,9.89.58,3.87,10.77,57.77,12.13,64.15,15.9,80.72,27.42,84.21,10.52,3.19,24.92-5.32,29.38-15.67,4.64-10.77-1.74-23-3.92-27.41-16.88-34.14-35.42-112.57-23.5-167.44,6.19-28.51,18.21-39.59,26.44-87.14C576,350.64,576.53,334.27,569.14,330.25Z" class="cls-4"/>
            </g>
            <path id="top" d="M599.49,332.2c5.49,3.63,11,10.85,12.73,55.82,1.5,39.64,2.25,59.46-3.91,86.16-5.52,23.9-8.14,17.61-26.44,70.5-13.14,38-19.71,56.94-21.54,71.48-3.47,27.45.35,41.86-10.77,50.91-10.41,8.48-29.11,8.38-36.23,0-6.77-8-.56-20.41,4.89-45,.75-3.36,2.78-22.47,6.86-60.7,7.64-71.77,5.06-79.77,12.73-112.61,5.4-23.13,7.33-22,9.79-38.18,6.15-40.68-4.54-57.7,7.83-71.48C565.91,327.38,587.38,324.2,599.49,332.2Z" class="cls-5"/>
        </g>
        <g id="torso">
            <g id="main">
                <path d="M497.17,189.74a144.13,144.13,0,0,1,21.54-1c22,.34,32.95.51,38.19,2,4.68,1.29,20,5.55,29.37,17.62,15.66,20.25-5.94,36.19,6.37,73,5.29,15.8,6.83,32.71,12.24,48.47.49,1.42,2,5.75,0,8.81-1.78,2.65-5.49,3.19-15.88,3.43-13.55.31-13-.48-20,0-7.83.54-9.44,1.59-20.91,2.44a76.67,76.67,0,0,1-9.3.49c-17.09-.38-20.76.95-39.17,0-14.7-.75-22.06-1.13-24-2.45-12.29-8.35-1.91-27.77-6.36-66.09-3.56-30.54-13.2-44.77-5.39-64.13,1.62-4,5.19-12.54,13.71-17.63C482.77,191.54,487.83,190.91,497.17,189.74Z" class="cls-6"/>
            </g>
            <g id="hands">
                <ellipse cx="532.37" cy="392.13" class="cls-2" rx="13.8" ry="27.97" transform="translate(-124.74 318.72) rotate(-30)"/>
            </g>
            <g id="rightarm">
                <path d="M477.1,196.1c10.17-.74,20.39,17.64,24.48,32.31,3.91,14,.72,19.79,1,39.17.16,12.11.43,32.9,8.81,52.87,12.43,29.65,35.31,39.82,30.35,51.9-3,7.38-13.08,7.24-19.58,20.56-3.44,7-2.54,11-4.9,11.75-6.53,2.09-21.8-25.46-31.33-47C473.65,330,469,308,464.37,285.2c-9.89-48.31-6.4-65.51.49-77.84C470.52,197.23,475.22,196.24,477.1,196.1Z" class="cls-7"/>
            </g>
        </g>
        <g id="hair">
            <g id="face">
                <path d="M570.12,97.15c4.19,1.57,8.12,8,8.81,13.1.17,1.23.31,3.62,1,7.86a36.81,36.81,0,0,0,1,5.24c2.36,5.69,9.1,6.51,8.81,9.6-.05.57-1.34,1.84-3.92,4.37-2.82,2.77-3.56,3.11-3.91,4.37-.6,2.11,1.08,2.61,1,5.24-.13,3.21-2.7,3.61-2.94,7-.17,2.41,1.1,2.73,1,5.24a9.26,9.26,0,0,1-2.94,6.11c-4.64,4.11-15.06.55-16.64,0-14.33-4.89-27.8-23.24-23.5-41C541.93,107.12,561.62,94,570.12,97.15Z" class="cls-8"/>
            </g>
            <path id="hair-2" d="M573.06,87.41c-6.67-7-17.12-6.15-32.32-4.89-12.82,1.06-19.85,1.64-26.43,6.85-8.79,6.95-10.91,17.49-13.71,31.34-3.73,18.43.64,20-3.92,34.27-3.89,12.12-8.15,14.34-8.81,24.48-.44,6.76,1.09,11.4,4.89,22.52,8.36,24.39,12.56,36.62,13.71,38.18,12.77,17.3,39.81,27.09,49.94,18.61,9.11-7.64,4.41-30,3.92-32.32-2.57-12.21-7.5-14.95-5.88-22.52,2.17-10.13,11.9-9.31,16.65-20.56,1.89-4.49.94-13.44-1-31.33-1.61-15-2.66-17.7-1-23.5,2.56-8.84,6.91-9.27,8.81-17.63C578.1,110.26,581.16,96,573.06,87.41Z" class="cls-9" data-name="hair"/>
        </g>
        <g id="shoes">
            <path d="M511.1,682.17c7.11-4.08,12.27-3.89,13.74-3.79s9.87.68,12.67,6c1.91,3.63-.66,5.83-1.13,16.64-.24,5.56-.36,8.33.88,10.78,2.94,5.79,9,5.48,9.7,9.88s-4.26,8.22-5,8.77c-4,3.09-8.64,2.94-10.8,2.84-6.29-.3-10.42-3.17-17.55-8-19.83-13.41-20.74-13.42-21.4-15.86C489.44,699,502.7,687,511.1,682.17Z" class="cls-10"/>
            <path d="M571.59,667.56c5.29,1.19,8.21,6.64,8.81,7.84,1.9,3.79.59,5.16,2,15.66a62.72,62.72,0,0,0,2,10.77c1.53,5.2,2.8,6.38,2.93,9.8,0,.54.18,6.11-2.93,9.79-6,7.1-21.55,4-30.36-2.94-1.87-1.48-7.51-5.93-6.85-10.77.53-3.93,4.66-4.14,6.85-8.81,3-6.37-2.65-10.31-1-17.63C554.79,673.38,564.09,665.88,571.59,667.56Z" class="cls-10"/>
            <path d="M500.27,709.06a173.07,173.07,0,0,0,25.93,15.76c1.73.85,3.25-1.74,1.51-2.59a173,173,0,0,1-25.92-15.76c-1.56-1.14-3.06,1.46-1.52,2.59Z" class="cls-11"/>
            <path d="M493.42,702.87c8.27,5.47,16.42,11.24,24.94,16.32,7.67,4.57,16.39,8.39,25.52,7.23,1.89-.23,1.92-3.24,0-3-9,1.13-17.3-2.75-24.77-7.28-8.23-5-16.15-10.55-24.18-15.87-1.61-1.06-3.12,1.53-1.51,2.6Z" class="cls-11"/>
            <path d="M493.7,708.69a139,139,0,0,0,24.22,15.14c4.2,2,8.65,4.34,13.28,5.2a19.69,19.69,0,0,0,13.14-2.14l-2.2-1.7c-1.34,3.58-5.36,5.37-8.94,5.66-4.43.37-8.81-1.1-12.77-3A110.76,110.76,0,0,1,498,713.22c-1.72-1.42-3.79-2.89-5-4.82-.9-1.44-1.21-3.73.56-4.66H492a20.63,20.63,0,0,1,6.86,5.87c1.14,1.54,3.74,0,2.59-1.51a24.21,24.21,0,0,0-6.16-5.91c-1.11-.72-2.27-1.66-3.57-.89a5.13,5.13,0,0,0-2.19,2.86c-1.81,5.56,4.37,9.68,8,12.6a128.52,128.52,0,0,0,15.55,10.62c5.25,3,10.86,5.92,17,6.46,6,.52,12.65-1.88,14.89-7.85.49-1.29-1.14-2.28-2.2-1.69a16.7,16.7,0,0,1-12.58,1.43,67.07,67.07,0,0,1-12-5.08,135.62,135.62,0,0,1-22.41-14.08,1.56,1.56,0,0,0-2.12,0,1.5,1.5,0,0,0,0,2.12Z" class="cls-11"/>
            <path d="M513.09,721.61a40.44,40.44,0,0,0,22.83,5.59l-1.3-2.25a2.86,2.86,0,0,1-3,1.57v3l4.33-.27c1.91-.11,1.93-3.1,0-3a10.11,10.11,0,0,1-3.24-.3l-.8,2.9,2,.49a1.51,1.51,0,0,0,.8-2.9,5.27,5.27,0,0,0-2.09-.17,1.53,1.53,0,0,0-1.07,2.56l1.4,1.48,1.46-2.5-3.92-1.06a1.51,1.51,0,0,0-1.15,2.74l2.33,1.37,1.15-2.74-5.63-2a1.51,1.51,0,0,0-1.46,2.51l1.3,1.15,1.46-2.51-4-1.6c-1.56-.63-2.69,2-1.15,2.74l3,1.39c1.72.8,3.25-1.7,1.51-2.59a204.06,204.06,0,0,0-20.56-9.17c-1.81-.69-2.58,2.2-.8,2.89a111.19,111.19,0,0,1,17.64,9c2.4,1.46,5.08,2.7,7.95,2.31a6.6,6.6,0,0,0,5.52-4.23,1.52,1.52,0,0,0-1.45-1.9,5.89,5.89,0,0,0-3.2,1.33,1.51,1.51,0,0,0,.67,2.51l3,.49c1.58.27,2.74-1.84,1.16-2.74-6.22-3.54-13.33-4.94-19.93-7.55a80.67,80.67,0,0,1-18.66-10.5l-1.51,2.59,16,9.7c1.53.92,2.89-1.11,1.82-2.36a15,15,0,0,0-3.93-3.25,1.5,1.5,0,0,0-1.51,2.59q7,4.21,13.63,9l1.52-2.59-6.53-3.62a1.5,1.5,0,0,0-1.51,2.59l4.25,2.91,1.52-2.59-2.35-1.1a1.5,1.5,0,0,0-1.51,2.59,5.88,5.88,0,0,1,1.68,1.76l2.05-2-1.9-1-.75,2.8h.18l-1.3-.74v-1l.89-.69c.43-.09.19,0-.13-.25s-.71-.41-1.05-.61a6.93,6.93,0,0,0-1.52-.75,2.18,2.18,0,0,0-2.73,1.09,1.87,1.87,0,0,0,3.27,1.77,1.53,1.53,0,0,0-.54-2.05L496,708.83l-1.51,2.59,11.08,6.65c1.7,1,3-1.47,1.52-2.59l-3.19-2.35-.75,2.79,3.84,0a1.5,1.5,0,0,0,1.29-2.25l-2.2-3.08-2.06,2,1.72,1.19c1.38,1,3.12-1.26,1.82-2.35l-3-2.54-2.12,2.12L510,717c1.48,1.16,3.53-.72,2.13-2.12L511,713.8l-1.82,2.36,3.27,2.24,1.52-2.59a105.9,105.9,0,0,1-20.14-11.55c-1.12-.82-2.48.53-2.2,1.7a10.26,10.26,0,0,0,3.7,5.81l1.82-2.35a8.8,8.8,0,0,1-3.63-4.78L491,706.1a147.15,147.15,0,0,0,19.14,13c3.36,1.92,6.81,3.71,10.32,5.35s7.31,3.5,11.25,4.17A13.92,13.92,0,0,0,543,726.18c1.51-1.21-.62-3.32-2.12-2.13-3.59,2.87-8.59,2-12.56.57A99,99,0,0,1,516,718.93,142.57,142.57,0,0,1,493.13,704c-1.07-.85-3-.1-2.51,1.46a12.15,12.15,0,0,0,5,6.57c1.4.91,3.17-1.31,1.81-2.36a7.73,7.73,0,0,1-2.93-4.49l-2.2,1.69a105.82,105.82,0,0,0,20.13,11.55,1.5,1.5,0,0,0,1.52-2.59l-3.27-2.24c-1.43-1-3,1.17-1.82,2.35L510,717l2.13-2.12L504.54,709c-1.49-1.17-3.62.86-2.12,2.12l3,2.54,1.82-2.36-1.71-1.19c-1.21-.84-2.92.84-2.06,2l2.21,3.08L507,713l-3.84,0a1.52,1.52,0,0,0-.76,2.8l3.18,2.35,1.52-2.59L496,708.83c-1.69-1-3,1.47-1.51,2.59L515.61,727l-.54-2-.1.13,1.3-.74c-.49,1.28-.27,2.1.64,2.48l.84.49c.38.21.74.46,1.13.63a2.19,2.19,0,0,0,2.25-.1,1.8,1.8,0,0,0-1.09-3.23,1.51,1.51,0,0,0-.76,2.79l1.9,1a1.51,1.51,0,0,0,2.05-2.06,9.55,9.55,0,0,0-2.76-2.83L519,726.16l2.34,1.1a1.5,1.5,0,0,0,1.52-2.59l-4.26-2.91-1.51,2.59,6.52,3.62a1.5,1.5,0,0,0,1.52-2.59q-6.65-4.75-13.64-9L509.94,719a12.67,12.67,0,0,1,3.32,2.78l1.82-2.35-16-9.7c-1.69-1-3,1.46-1.51,2.59a83.12,83.12,0,0,0,18.55,10.47c6.6,2.7,13.8,4,20,7.58l1.16-2.74-3-.49.67,2.51a2.14,2.14,0,0,1,1.07-.46l-1.45-1.89c-.68,1.88-3.14,2.36-4.88,2-2.63-.57-4.88-2.35-7.14-3.71a98.19,98.19,0,0,0-15.39-7.51l-.8,2.89a196.83,196.83,0,0,1,19.85,8.87l1.51-2.59-3-1.39-1.15,2.74,4,1.6c1.4.57,2.54-1.55,1.46-2.51l-1.3-1.14L526.32,729l5.64,2c1.63.57,2.59-1.9,1.15-2.74l-2.33-1.37-1.15,2.74,3.91,1.06a1.51,1.51,0,0,0,1.46-2.51l-1.39-1.48-1.06,2.56a3,3,0,0,1,1.29.07l.8-2.9-2-.49c-1.88-.46-2.67,2.42-.8,2.9a13.1,13.1,0,0,0,4,.4v-3l-4.33.27a1.5,1.5,0,0,0,0,3,5.73,5.73,0,0,0,5.63-3.06,1.52,1.52,0,0,0-1.29-2.26A37.54,37.54,0,0,1,514.61,719a1.5,1.5,0,0,0-1.52,2.59Z" class="cls-11"/>
            <path d="M546.76,708a54.69,54.69,0,0,0,38.91,10.35l-1.29-2.26c-1.82,3.84-6,5.69-10.14,5.68-5.22,0-10.26-2.41-14.83-4.7a47.28,47.28,0,0,1-6.19-3.63,26.45,26.45,0,0,1-2.84-2.33c-.39-.37-.77-.76-1.14-1.15-.2-.23-1-1.55-1.31-1.59l-.24.4c-.35.31-.39.44-.12.4a4.54,4.54,0,0,0,.54.15,13.65,13.65,0,0,1,1.35.75c1.28.71,2.58,1.4,3.88,2.08q3.6,1.86,7.28,3.54a169.69,169.69,0,0,0,17.18,6.7v-2.89l-2.93,1.13,1.46,2.51,2.18-2.14a1.51,1.51,0,0,0-.31-2.36l-1.17-.55-.36,2.74,3.82-1c1.6-.41,1.32-3.1-.4-3a37.4,37.4,0,0,1-19.54-3.5c-1.73-.84-3.25,1.74-1.52,2.59a73.84,73.84,0,0,0,14.46,5.27,1.5,1.5,0,0,0,.8-2.89,110.14,110.14,0,0,1-11.52-4.2,1.5,1.5,0,0,0-1.51,2.59A67.56,67.56,0,0,0,572,722.32c1.56.64,2.7-2,1.15-2.74a56.42,56.42,0,0,1-7.08-3.86,1.51,1.51,0,0,0-1.81,2.36,64,64,0,0,0,6,4.89l1.51-2.59a57.92,57.92,0,0,1-7.89-4.49c-1.61-1.1-3.08,1.49-1.51,2.59l4.18,2.94,1.52-2.59-4.48-2.47A1.5,1.5,0,0,0,562.1,719l1.53,1.13,1.16-2.74-2.91-1.22c-1.41-.59-2.5,1.55-1.46,2.51l1.4,1.28,1.81-2.35c-4.9-2.77-10-5.64-13.53-10.19-1.13-1.48-3.67-.14-2.59,1.52a47.77,47.77,0,0,0,7.21,8.28,34,34,0,0,0,8.14,6.06,16.43,16.43,0,0,0,10,1.57c3.64-.59,7-2.27,10.28-3.91l-2.2-.9c.67,3.35-6.09,3.21-8,3.13a28.52,28.52,0,0,1-9.65-2.31,47.13,47.13,0,0,1-8.85-5c-2.18-1.55-5.82-3.7-6.2-6.65-.24-1.89-3.24-1.91-3,0,.52,4.06,3.89,6.49,7,8.73a48.17,48.17,0,0,0,11.49,6.31,28.64,28.64,0,0,0,12.39,1.87c3.78-.34,8.64-2.11,7.69-6.86a1.51,1.51,0,0,0-2.2-.89,34.36,34.36,0,0,1-9.14,3.53,13.37,13.37,0,0,1-8.82-1.56,34.21,34.21,0,0,1-7.14-5.53,42.51,42.51,0,0,1-6.42-7.37l-2.59,1.52c3.83,5,9.2,8.2,14.61,11.26,1.45.81,3.1-1.18,1.82-2.36l-1.39-1.28L561.09,719l2.9,1.21a1.48,1.48,0,0,0,1.77-.86,1.53,1.53,0,0,0-.61-1.88l-1.53-1.13L562.1,719l4.48,2.47a1.5,1.5,0,0,0,1.52-2.59l-4.19-2.94-1.51,2.59a57.92,57.92,0,0,0,7.89,4.49,1.5,1.5,0,0,0,1.51-2.59,57,57,0,0,1-5.39-4.42l-1.82,2.35a56.42,56.42,0,0,0,7.08,3.86l1.15-2.74a63.48,63.48,0,0,1-10.05-5.23l-1.51,2.59a115.52,115.52,0,0,0,12.23,4.5l.8-2.89a70.07,70.07,0,0,1-13.74-5L559,716a40.4,40.4,0,0,0,21.06,3.91l-.4-2.94-3.82,1a1.51,1.51,0,0,0-.36,2.74l1.18.55-.3-2.35L574.21,721c-1,1,0,3.07,1.46,2.51l2.92-1.13a1.51,1.51,0,0,0,0-2.89,161.51,161.51,0,0,1-18.13-7.18q-4.41-2.07-8.68-4.39c-1.71-.94-4.86-3.07-6.46-.71s1.91,5.09,3.39,6.42a36.77,36.77,0,0,0,6.82,4.77c5.21,2.91,11.12,5.77,17.13,6.29,5.55.48,11.8-1.79,14.31-7.09.42-.9-.06-2.41-1.3-2.26a52.2,52.2,0,0,1-37.39-9.94c-1.55-1.15-3,1.45-1.52,2.59Z" class="cls-11"/>
        </g>
    </g>
    <g id="man">
        <g id="pants-2" data-name="pants">
            <g id="shoes-2" data-name="shoes">
                <path d="M757,622.12c3.06,2.93,4,7.83,5.87,17.63.88,4.59,1.23,8,2,30.35.42,12.69.4,14.29-1,16.65-3.23,5.54-8.41,5.75-18.6,11.75-8.77,5.16-8.83,7.29-15.67,11.75-13.79,9-36.19,15-43.08,6.85-3.5-4.16-2.92-11.9,0-16.64,3.87-6.3,10.27-4.76,18.6-12.73A41,41,0,0,0,712.94,677a59.94,59.94,0,0,0,6.85-24.48c1.12-15.68-4.17-18.34-1-24.48C724.45,617.15,747.42,613,757,622.12Z" class="cls-12"/>
                <path d="M770.36,650.92c7.61-8.43,29.42-6.21,35.25,3.92,1.77,3.08,1.2,8,0,17.62-2,15.67-4.24,16.7-4.9,27.42-.6,9.75,1.14,11.3,0,22.52-.88,8.63-1.32,13-3.92,15.66s-5.42,2.7-29.37,2.94c-9.21.09-11.77.14-13.71-2-3.78-4.08-1.32-12.1,1-19.58,3.52-11.47,7.08-13.07,9.79-23.5.7-2.69,1.13-7.38,2-16.65C768.54,655.81,767.83,653.71,770.36,650.92Z" class="cls-12"/>
            </g>
            <g id="rightleg">
                <path d="M701.33,336.12c-.52-.06-3.4-.41-7.35-.49a28.4,28.4,0,0,0-2.94,0c-6.32.9-8.33,30.23-8.81,37.21-2.54,36.91-2,27.56-2.45,34.76-1.46,25.59-3,49,0,74.41,2.42,20.62,4.15,14.46,10.77,50.92,3.59,19.75,7.36,45.05,15.67,78.33,5.33,21.35,8.31,29,15.67,32.31,11.16,5,27.63-2.42,35.25-13.7,5.5-8.15,5.23-16.62,2-41.13-5.47-41-8.85-48.35-10.78-70.5-1-11.63-2.57-30.86,1-54.83,3.63-24.5,14.36-30.53,17.63-57.77,1.44-12,2.59-22.63-2-35.25-1.29-3.57-9.12-25.31-30.35-33.29C723.25,332.83,709.32,337,701.33,336.12Z" class="cls-13"/>
            </g>
            <path id="leftleg" d="M735.11,340.53a22,22,0,0,1,3.91-3.92c16.91-13.4,54.22-4.7,80.29,9.79,9.35,5.2,12,8.23,13.71,10.77,6.26,9.44,4.57,20.69,0,43.08-4.27,20.95-7,31.73-8.81,40.15a319.47,319.47,0,0,0-6.86,60.71c-.33,31.54,5.42,31.76,4.9,65.6-.34,22.49-2.83,19.26-3.92,49-1.11,30.7,1.31,40.87-5.87,47-10.89,9.3-33.67,7.41-42.1-3.92-4-5.4-3.8-11.64-3.43-19.09,1.78-35.9,2.67-53.85,2.94-55.81,1.1-8.19-1.54-28.74-6.86-69.52-6.86-52.59-10.79-78.82-16.64-93-6.36-15.42-9-26.76-14.2-49.45C730.53,364.73,727.44,350.46,735.11,340.53Z" class="cls-14"/>
        </g>
        <g id="torso-2" data-name="torso">
            <g id="Layer_27" data-name="Layer 27">
                <ellipse cx="699.58" cy="324.08" class="cls-15" rx="16.3" ry="27.91" transform="matrix(1, -0.08, 0.08, 1, -23.81, 57.35)"/>
            </g>
            <g id="rightarm-2" data-name="rightarm">
                <path d="M727.27,114.34c-8.52,2-12.88,9.06-14.2,11.26-6.14,10.3-3.86,21.83-2.93,28.4.89,6.36-1.69,23.17-6.86,56.79-6.59,42.89-9.88,64.34-16.64,77.35-5.23,10.07-11.12,18-7.84,25.46,3.91,8.84,19.4,13.83,28.4,8.81,8.17-4.55,7.8-15.58,10.77-41.12,5-43,9-36.88,9.79-60.71,1.32-38.48-13.65-49-3.91-67.56,9.13-17.46,28-21.1,25.94-29.87C748.28,116.78,736.72,112.12,727.27,114.34Z" class="cls-16"/>
            </g>
            <g id="neck">
                <path d="M796.79,67.34c1.08,1.09-2.93,6-4.89,17.63a82.65,82.65,0,0,0-1,8.81c-.4,7.61.69,8.77,0,13.71-.4,2.83-1.58,5.84-3.92,11.75-2.82,7.1-4.23,10.66-5.27,12.24-8.73,13.17-41.37,9.45-42.71,3.42-.64-2.86,6.73-5.82,5.88-10.77-.61-3.52-4.59-3.46-4.9-6.85-.17-1.88,1-7.08,8-13.22h0C784.23,72.8,795.26,65.8,796.79,67.34Z" class="cls-17"/>
            </g>
            <g id="main-2" data-name="main">
                <path d="M795.81,103.57c-9.18,2.11-6.79,16-20.47,23.56-7.55,4.19-17.12,4.9-22.52,2.93-.24-.09-.59-.21-1-.39-5.06-2.11-7.44-5.66-10.73-9.4-4.43-5-6.65-7.56-8.9-7.89-3.14-.46-7.14,1.85-12.64,9.85-11.15,16.24-13.44,34.13-13.8,37.15-3.07,26.14-2.43,46.79-2,64.63.86,32.35,1.29,48.53,1,50.91-5.56,42.63-28.86,60.87-19.58,73.44,3.05,4.14,14.77,6.3,38.19,10.77,9.35,1.79,15.58,3,24.47,3.92,33.53,3.55,89.33,3.91,93-2,4.39-7-1.29-13.55,1.47-31.82.38-2.51.67-3.33,1.26-6.43,1.58-8.37,4.15-24.94,4.62-50.37.84-45.79,10.45-39.72,6.85-65.6-4.21-30.31-18.3-43.62-12.15-60.16,2-5.27,4.19-6.08,3.83-9.85-.71-7.43-9.85-9.61-30.35-22.52C802.33,105.5,800.29,102.54,795.81,103.57Z" class="cls-18"/>
            </g>
            <g id="notepad">
                <rect width="62.67" height="96.94" x="729.23" y="325.84" class="cls-19" transform="translate(-41.91 647.43) rotate(-45)"/>
            </g>
            <g id="hand">
                <ellipse cx="781.84" cy="357.88" class="cls-15" rx="27.91" ry="16.3" transform="translate(-24.07 657.66) rotate(-45)"/>
            </g>
            <g id="leftarm-2" data-name="leftarm">
                <path d="M831.06,125.11c7.19-2.51,19.91,11.74,26,24,6.19,12.56,4.27,17.91,6.85,38.19,4.22,33.08,14.71,37.42,15.67,68.54.32,10.21.47,17.54-2.94,26.44-5.84,15.28-17.24,22.36-29.37,32.31-28.6,23.44-25.36,41-40.15,43.08-13.1,1.82-28.38-8.1-29.37-17.62-.53-5.13,3.24-8.67,11.75-17.63,20.9-22,31.45-33.23,36.23-45,4.91-12.15,3.85-23,2.94-32.31-3-30.91-19.84-34.28-20.57-60.71v-.14A24.63,24.63,0,0,1,811.66,173c2.19-3.44,5-10.11,10.59-23.45C829.36,132.67,826.68,126.65,831.06,125.11Z" class="cls-20"/>
            </g>
        </g>
        <g id="head">
            <ellipse cx="717.36" cy="71.14" class="cls-21" rx="3.69" ry="9.22" transform="translate(3.99 174.89) rotate(-13.94)"/>
            <path id="head-2" d="M731.68,23.77C742.55,14,754.93,13.21,759.1,13c5-.26,16.53-.84,26.43,6.85,11.32,8.79,12.9,22.4,13.71,29.38.51,4.35,2,16.92-4.9,28.39-2.7,4.52-3.87,4.15-12.72,13.71C769.48,104.43,771,105.84,765,110.91c-12.62,10.6-30.77,14.09-35.25,8.82-1.38-1.62-1.68-4.33-4.9-10.77-1.26-2.55-1.9-3.82-2-3.92-1.33-2.43-1.75-2.81-2-3.92-.34-1.79.49-2.37,1-4.89.23-1.22,1.1-5.65-1-7.84-1.7-1.78-3.8-.43-4.9-2-1.69-2.35,1.45-8.06,2.94-10.78,1.12-2,1.95-3.06,2-4.89a8.22,8.22,0,0,0-2-4.9c-2.61-3.71-1.9-8.92-1-15.66C720.18,34.09,731.68,23.77,731.68,23.77Z" class="cls-22" data-name="head"/>
            <path d="M779.17,48.74a179.64,179.64,0,0,0,19.71-2c-.94-7.37-3.22-19.23-13.44-27.17-9.91-7.69-21.38-7.11-26.44-6.85-4.17.21-16.55,1-27.41,10.77A48.2,48.2,0,0,0,720,41.36a179.06,179.06,0,0,0,23.88,5.42A179.58,179.58,0,0,0,779.17,48.74Z" class="cls-23"/>
            <path d="M732.85,70.66c1.23,4.94.62,9.34-1.36,9.83s-4.57-3.11-5.79-8-.62-9.35,1.36-9.84S731.63,65.72,732.85,70.66Z" class="cls-21"/>
            <path d="M720.91,70.77a1.89,1.89,0,0,1,.88-1c1-.48,2.49.25,3.52,2" class="cls-24"/>
            <line x1="733.64" x2="775.87" y1="70.77" y2="57.39" class="cls-24"/>
            <path d="M772.84,67.57c1.91-1.91,2.87-1.64,3.1-1.55,1.43.53,1.6,4,.78,6.59a8.91,8.91,0,0,1-1.17,2.33" class="cls-25"/>
            <path d="M770.36,61.47c4.83-4.82,7.25-4.14,7.83-3.92,3.6,1.35,4,10.23,2,16.65a22.49,22.49,0,0,1-2.94,5.87" class="cls-26"/>
        </g>
    </g>
</svg>
