<svg xmlns="http://www.w3.org/2000/svg" viewBox="0 0 1366 768">
    <defs>
        <style>
            .cls-1{fill:#bf2121;}.cls-2{fill:#245cbc;}.cls-3{fill:#fbb03b;}.cls-4{fill:#60636a;stroke:#000;stroke-width:0.5px;}.cls-4,.cls-5,.cls-6{stroke-miterlimit:10;}.cls-5{fill:#e6e6e6;}.cls-5,.cls-6{stroke:#fff;}.cls-6{fill:none;stroke-width:5px;}.cls-7{fill:#f15a24;}.cls-8{fill:#fbc13b;}
        </style>
    </defs>
    <title>
        timelinedeployement
    </title>
    <g id="deployement">
        <rect width="68.72" height="23.43" x="534.25" y="444.11" class="cls-1" transform="translate(509.89 -270.57) rotate(46.66)"/>
        <path d="M797.12,366.89c-49.25,46.47-100.91,81-144.62,99.36q-8.21,3.44-16,6.11c-27.2,9.5-65.12,21.66-85.29-6.54-18.09-23.73-4-54.25,4.84-78.72q3.12-7.64,7-15.62c20.82-42.58,58.33-92.15,107.57-138.62C769.13,139.92,877.28,94.59,912.21,131.6S895.61,274,797.12,366.89Z" class="cls-2"/>
        <path d="M596.41,330.11c-14.46-24.62-108.68-5.43-108.68-5.43a41.29,41.29,0,0,0-17.07,8.86l-54.75,51.7c-4,3.78-2.77,7,2.72,7.16l94.81,2.75c5.5.16,12.58,4,15.73,8.48,0,0,14.18,20.26,21.52,20.69C576.63,425.83,614.82,361.49,596.41,330.11Z" class="cls-3"/>
        <path d="M698,433.22c23.74,15.86-.87,108.81-.87,108.81a41.43,41.43,0,0,1-9.84,16.53L632.5,610.22c-4,3.77-7.15,2.36-7-3.14l2.75-94.8c.16-5.5-3.24-12.79-7.55-16.2,0,0-19.41-15.33-19.41-22.68C601.3,447.42,667.74,413,698,433.22Z" class="cls-3"/>
        <ellipse cx="560.09" cy="463.87" class="cls-4" rx="9.37" ry="34.36" transform="translate(-165.62 510.89) rotate(-43.34)"/>
        <circle cx="799.76" cy="237.71" r="27.33" class="cls-5"/>
        <circle cx="728.2" cy="305.23" r="27.33" class="cls-5"/>
        <path d="M733,150.5c4.16-1.35,72.54-22.17,127,24,45.08,38.22,46,93,46,101" class="cls-6"/>
        <g id="fire">
            <path d="M556.51,519.41c2.35-2.56,12.64-14.36,12-31.82a44.37,44.37,0,0,0-7.77-23.34l-.11.11a.22.22,0,0,0-.29-.3l.1-.1a44.4,44.4,0,0,0-23.33-7.78c-17.46-.61-29.26,9.68-31.82,12A141.34,141.34,0,0,1,479.63,496c-3.77,3.08-9.91,7.74-9,9.7,1.32,2.76,15.11-3.19,17,0,1.49,2.56-5.82,9.52-20.51,23.33-8.21,7.73-12.31,11.6-17.19,15.69-10.39,8.75-16.09,12.28-15.33,14,1.36,3.09,21.15-4.52,22.63-1.41,1.63,3.44-23.32,11.29-38.19,35.35-4.24,6.86-5.65,11.78-13.43,23.34-1.74,2.58-3.45,5-5.08,7.16l-10.19,10.1c1.83-1.59,4.08-3.5,6.73-5.61-2.1,2.66-4,4.91-5.61,6.73l10.1-10.18c2.2-1.63,4.59-3.34,7.17-5.08,11.55-7.79,16.48-9.2,23.33-13.44,24.06-14.87,31.92-39.81,35.36-38.18,3.11,1.47-4.51,21.27-1.42,22.63,1.73.76,5.27-4.94,14-15.34,4.1-4.87,8-9,15.69-17.19,13.82-14.68,20.78-22,23.34-20.5,3.19,1.85-2.76,15.64,0,17,2,.93,6.62-5.2,9.7-9A140.93,140.93,0,0,1,556.51,519.41Z" class="cls-7"/>
            <path d="M558.21,500.65c1.56-1.7,8.37-9.51,8-21.07A29.41,29.41,0,0,0,561,464.13l-.07.07c0-.08,0-.13,0-.16a.16.16,0,0,0-.17,0l.07-.07a29.34,29.34,0,0,0-15.45-5.15c-11.56-.41-19.37,6.41-21.07,8a93.55,93.55,0,0,1-17,18.39c-2.49,2-6.56,5.13-5.94,6.42.88,1.83,10-2.11,11.24,0,1,1.69-3.86,6.3-13.58,15.45-5.44,5.12-8.15,7.67-11.38,10.39-6.89,5.79-10.66,8.13-10.15,9.27.9,2.05,14-3,15-.93,1.08,2.28-15.44,7.47-25.28,23.41-2.81,4.54-3.74,7.79-8.9,15.45-1.15,1.7-2.28,3.29-3.36,4.74L448.19,576c1.21-1.06,2.7-2.32,4.46-3.72-1.39,1.76-2.66,3.25-3.71,4.46l6.68-6.74c1.46-1.09,3-2.22,4.75-3.37,7.65-5.15,10.91-6.09,15.45-8.89,15.93-9.85,21.13-26.36,23.41-25.28,2,1-3,14.08-.94,15,1.14.5,3.49-3.27,9.28-10.16,2.71-3.22,5.27-5.94,10.38-11.38,9.15-9.72,13.76-14.56,15.45-13.58,2.12,1.24-1.83,10.37,0,11.24,1.3.62,4.38-3.44,6.42-5.94A93.84,93.84,0,0,1,558.21,500.65Z" class="cls-8"/>
        </g>
    </g>
</svg>
