<svg xmlns="http://www.w3.org/2000/svg" viewBox="0 0 1367 768">
    <defs>
        <style>
            .cls-1{fill:#00a99d;}.cls-2{fill:#22b573;}.cls-3{fill:#229a6d;}.cls-4{fill:none;}
        </style>
    </defs>
    <title>
        trees
    </title>
    <g id="trees">
        <rect width="1367" height="239" y="529" class="cls-1"/>
        <polygon points="108.86 287.32 76.37 343.58 93.9 343.58 61.63 399.48 82.64 399.48 37.26 478.06 52.21 478.06 0.72 567.25 109 567.25 109 287.56 108.86 287.32" class="cls-2"/>
        <polygon points="168.51 478.06 183.45 478.06 138.08 399.48 159.09 399.48 126.82 343.58 141.34 343.58 109 287.56 109 567.25 220 567.25 168.51 478.06" class="cls-3"/>
        <polygon points="196.86 314.32 164.37 370.58 181.9 370.58 149.63 426.48 170.64 426.48 125.26 505.06 140.21 505.06 88.72 594.25 197 594.25 197 314.56 196.86 314.32" class="cls-2"/>
        <polygon points="256.51 505.06 271.45 505.06 226.08 426.48 247.09 426.48 214.82 370.58 229.34 370.58 197 314.56 197 594.25 308 594.25 256.51 505.06" class="cls-3"/>
        <polygon points="306.86 333.32 274.37 389.58 291.9 389.58 259.63 445.48 280.64 445.48 235.26 524.06 250.21 524.06 198.72 613.25 307 613.25 307 333.56 306.86 333.32" class="cls-2"/>
        <polygon points="366.51 524.06 381.45 524.06 336.08 445.48 357.09 445.48 324.82 389.58 339.34 389.58 307 333.56 307 613.25 418 613.25 366.51 524.06" class="cls-3"/>
        <polygon points="344.86 389.32 312.37 445.58 329.9 445.58 297.63 501.48 318.64 501.48 273.26 580.06 288.21 580.06 236.72 669.25 345 669.25 345 389.56 344.86 389.32" class="cls-2"/>
        <polygon points="404.51 580.06 419.45 580.06 374.08 501.48 395.09 501.48 362.82 445.58 377.34 445.58 345 389.56 345 669.25 456 669.25 404.51 580.06" class="cls-3"/>
        <polygon points="495.86 372.32 463.37 428.58 480.9 428.58 448.63 484.48 469.64 484.48 424.26 563.06 439.21 563.06 387.72 652.25 496 652.25 496 372.56 495.86 372.32" class="cls-2"/>
        <polygon points="555.51 563.06 570.45 563.06 525.08 484.48 546.09 484.48 513.82 428.58 528.34 428.58 496 372.56 496 652.25 607 652.25 555.51 563.06" class="cls-3"/>
        <polygon points="605.86 345.32 573.37 401.58 590.9 401.58 558.63 457.48 579.64 457.48 534.26 536.06 549.21 536.06 497.72 625.25 606 625.25 606 345.56 605.86 345.32" class="cls-2"/>
        <polygon points="665.51 536.06 680.45 536.06 635.08 457.48 656.09 457.48 623.82 401.58 638.34 401.58 606 345.56 606 625.25 717 625.25 665.51 536.06" class="cls-3"/>
        <polygon points="495.86 287.32 463.37 343.58 480.9 343.58 448.63 399.48 469.64 399.48 424.26 478.06 439.21 478.06 387.72 567.25 496 567.25 496 287.56 495.86 287.32" class="cls-2"/>
        <polygon points="555.51 478.06 570.45 478.06 525.08 399.48 546.09 399.48 513.82 343.58 528.34 343.58 496 287.56 496 567.25 607 567.25 555.51 478.06" class="cls-3"/>
        <polygon points="397.86 401.32 365.37 457.58 382.9 457.58 350.63 513.48 371.64 513.48 326.26 592.06 341.21 592.06 289.72 681.25 398 681.25 398 401.56 397.86 401.32" class="cls-2"/>
        <polygon points="457.51 592.06 472.45 592.06 427.08 513.48 448.09 513.48 415.82 457.58 430.34 457.58 398 401.56 398 681.25 509 681.25 457.51 592.06" class="cls-3"/>
        <polygon points="710.86 418.32 678.37 474.58 695.9 474.58 663.63 530.48 684.64 530.48 639.26 609.06 654.21 609.06 602.72 698.25 711 698.25 711 418.56 710.86 418.32" class="cls-2"/>
        <polygon points="770.51 609.06 785.45 609.06 740.08 530.48 761.09 530.48 728.82 474.58 743.34 474.58 711 418.56 711 698.25 822 698.25 770.51 609.06" class="cls-3"/>
        <polygon points="806.86 357.32 774.37 413.58 791.9 413.58 759.63 469.48 780.64 469.48 735.26 548.06 750.21 548.06 698.72 637.25 807 637.25 807 357.56 806.86 357.32" class="cls-2"/>
        <polygon points="866.51 548.06 881.45 548.06 836.08 469.48 857.09 469.48 824.82 413.58 839.34 413.58 807 357.56 807 637.25 918 637.25 866.51 548.06" class="cls-3"/>
        <polygon points="668.86 333.32 636.37 389.58 653.9 389.58 621.63 445.48 642.64 445.48 597.26 524.06 612.21 524.06 560.72 613.25 669 613.25 669 333.56 668.86 333.32" class="cls-2"/>
        <polygon points="728.51 524.06 743.45 524.06 698.08 445.48 719.09 445.48 686.82 389.58 701.34 389.58 669 333.56 669 613.25 780 613.25 728.51 524.06" class="cls-3"/>
        <polygon points="1030.86 345.32 998.37 401.58 1015.9 401.58 983.63 457.48 1004.64 457.48 959.26 536.06 974.21 536.06 922.72 625.25 1031 625.25 1031 345.56 1030.86 345.32" class="cls-2"/>
        <polygon points="1090.51 536.06 1105.45 536.06 1060.08 457.48 1081.09 457.48 1048.82 401.58 1063.34 401.58 1031 345.56 1031 625.25 1142 625.25 1090.51 536.06" class="cls-3"/>
        <polygon points="956.86 314.32 924.37 370.58 941.9 370.58 909.63 426.48 930.64 426.48 885.26 505.06 900.21 505.06 848.72 594.25 957 594.25 957 314.56 956.86 314.32" class="cls-2"/>
        <polygon points="1016.51 505.06 1031.45 505.06 986.08 426.48 1007.09 426.48 974.82 370.58 989.34 370.58 957 314.56 957 594.25 1068 594.25 1016.51 505.06" class="cls-3"/>
        <polygon points="1138.86 303.32 1106.37 359.58 1123.9 359.58 1091.63 415.48 1112.64 415.48 1067.26 494.06 1082.21 494.06 1030.72 583.25 1139 583.25 1139 303.56 1138.86 303.32" class="cls-2"/>
        <polygon points="1198.51 494.06 1213.45 494.06 1168.08 415.48 1189.09 415.48 1156.82 359.58 1171.34 359.58 1139 303.56 1139 583.25 1250 583.25 1198.51 494.06" class="cls-3"/>
        <polygon points="1225.86 303.32 1193.37 359.58 1210.9 359.58 1178.63 415.48 1199.64 415.48 1154.26 494.06 1169.21 494.06 1117.72 583.25 1226 583.25 1226 303.56 1225.86 303.32" class="cls-2"/>
        <polygon points="1285.51 494.06 1300.45 494.06 1255.08 415.48 1276.09 415.48 1243.82 359.58 1258.34 359.58 1226 303.56 1226 583.25 1337 583.25 1285.51 494.06" class="cls-3"/>
        <polygon points="1255.86 303.32 1223.37 359.58 1240.9 359.58 1208.63 415.48 1229.64 415.48 1184.26 494.06 1199.21 494.06 1147.72 583.25 1256 583.25 1256 303.56 1255.86 303.32" class="cls-2"/>
        <polygon points="1315.51 494.06 1330.45 494.06 1285.08 415.48 1306.09 415.48 1273.82 359.58 1288.34 359.58 1256 303.56 1256 583.25 1367 583.25 1315.51 494.06" class="cls-3"/>
        <polygon points="1214.86 408.32 1182.37 464.58 1199.9 464.58 1167.63 520.48 1188.64 520.48 1143.26 599.06 1158.21 599.06 1106.72 688.25 1215 688.25 1215 408.56 1214.86 408.32" class="cls-2"/>
        <polygon points="1274.51 599.06 1289.45 599.06 1244.08 520.48 1265.09 520.48 1232.82 464.58 1247.34 464.58 1215 408.56 1215 688.25 1326 688.25 1274.51 599.06" class="cls-3"/>
        <polygon points="1137.86 427.32 1105.37 483.58 1122.9 483.58 1090.63 539.48 1111.64 539.48 1066.26 618.06 1081.21 618.06 1029.72 707.25 1138 707.25 1138 427.56 1137.86 427.32" class="cls-2"/>
        <polygon points="1197.51 618.06 1212.45 618.06 1167.08 539.48 1188.09 539.48 1155.82 483.58 1170.34 483.58 1138 427.56 1138 707.25 1249 707.25 1197.51 618.06" class="cls-3"/>
        <polygon points="1006.86 418.32 974.37 474.58 991.9 474.58 959.63 530.48 980.64 530.48 935.26 609.06 950.21 609.06 898.72 698.25 1007 698.25 1007 418.56 1006.86 418.32" class="cls-2"/>
        <polygon points="1066.51 609.06 1081.45 609.06 1036.08 530.48 1057.09 530.48 1024.82 474.58 1039.34 474.58 1007 418.56 1007 698.25 1118 698.25 1066.51 609.06" class="cls-3"/>
        <polygon points="915.86 401.32 883.37 457.58 900.9 457.58 868.63 513.48 889.64 513.48 844.26 592.06 859.21 592.06 807.72 681.25 916 681.25 916 401.56 915.86 401.32" class="cls-2"/>
        <polygon points="975.51 592.06 990.45 592.06 945.08 513.48 966.09 513.48 933.82 457.58 948.34 457.58 916 401.56 916 681.25 1027 681.25 975.51 592.06" class="cls-3"/>
        <polygon points="854.86 427.32 822.37 483.58 839.9 483.58 807.63 539.48 828.64 539.48 783.26 618.06 798.21 618.06 746.72 707.25 855 707.25 855 427.56 854.86 427.32" class="cls-2"/>
        <polygon points="914.51 618.06 929.45 618.06 884.08 539.48 905.09 539.48 872.82 483.58 887.34 483.58 855 427.56 855 707.25 966 707.25 914.51 618.06" class="cls-3"/>
        <polygon points="710.86 454.32 678.37 510.58 695.9 510.58 663.63 566.48 684.64 566.48 639.26 645.06 654.21 645.06 602.72 734.25 711 734.25 711 454.56 710.86 454.32" class="cls-2"/>
        <polygon points="770.51 645.06 785.45 645.06 740.08 566.48 761.09 566.48 728.82 510.58 743.34 510.58 711 454.56 711 734.25 822 734.25 770.51 645.06" class="cls-3"/>
        <polygon points="580.86 454.32 548.37 510.58 565.9 510.58 533.63 566.48 554.64 566.48 509.26 645.06 524.21 645.06 472.72 734.25 581 734.25 581 454.56 580.86 454.32" class="cls-2"/>
        <polygon points="640.51 645.06 655.45 645.06 610.08 566.48 631.09 566.48 598.82 510.58 613.34 510.58 581 454.56 581 734.25 692 734.25 640.51 645.06" class="cls-3"/>
        <polygon points="372.86 473.31 340.37 529.58 357.9 529.58 325.63 585.48 346.64 585.48 301.26 664.06 316.21 664.06 264.72 753.25 373 753.25 373 473.56 372.86 473.31" class="cls-2"/>
        <polygon points="432.51 664.06 447.45 664.06 402.08 585.48 423.09 585.48 390.82 529.58 405.34 529.58 373 473.56 373 753.25 484 753.25 432.51 664.06" class="cls-3"/>
        <polygon points="232.86 485.32 200.37 541.58 217.9 541.58 185.63 597.48 206.64 597.48 161.26 676.06 176.21 676.06 124.72 765.25 233 765.25 233 485.56 232.86 485.32" class="cls-2"/>
        <polygon points="292.51 676.06 307.45 676.06 262.08 597.48 283.09 597.48 250.82 541.58 265.34 541.58 233 485.56 233 765.25 344 765.25 292.51 676.06" class="cls-3"/>
        <polygon points="153.86 461.32 121.37 517.58 138.9 517.58 106.63 573.48 127.64 573.48 82.26 652.06 97.21 652.06 45.72 741.25 154 741.25 154 461.56 153.86 461.32" class="cls-2"/>
        <polygon points="213.51 652.06 228.45 652.06 183.08 573.48 204.09 573.48 171.82 517.58 186.34 517.58 154 461.56 154 741.25 265 741.25 213.51 652.06" class="cls-3"/>
        <polygon points="122.86 427.32 90.37 483.58 107.9 483.58 75.63 539.48 96.64 539.48 51.26 618.06 66.21 618.06 14.72 707.25 123 707.25 123 427.56 122.86 427.32" class="cls-2"/>
        <polygon points="182.51 618.06 197.45 618.06 152.08 539.48 173.09 539.48 140.82 483.58 155.34 483.58 123 427.56 123 707.25 234 707.25 182.51 618.06" class="cls-3"/>
        <polygon points="1087.86 476.32 1055.37 532.58 1072.9 532.58 1040.63 588.48 1061.64 588.48 1016.26 667.06 1031.21 667.06 979.72 756.25 1088 756.25 1088 476.56 1087.86 476.32" class="cls-2"/>
        <polygon points="1147.51 667.06 1162.45 667.06 1117.08 588.48 1138.09 588.48 1105.82 532.58 1120.34 532.58 1088 476.56 1088 756.25 1199 756.25 1147.51 667.06" class="cls-3"/>
        <polygon points="868.86 476.32 836.37 532.58 853.9 532.58 821.63 588.48 842.64 588.48 797.26 667.06 812.21 667.06 760.72 756.25 869 756.25 869 476.56 868.86 476.32" class="cls-2"/>
        <polygon points="928.51 667.06 943.45 667.06 898.08 588.48 919.09 588.48 886.82 532.58 901.34 532.58 869 476.56 869 756.25 980 756.25 928.51 667.06" class="cls-3"/>
        <polygon points="671.86 461.32 639.37 517.58 656.9 517.58 624.63 573.48 645.64 573.48 600.26 652.06 615.21 652.06 563.72 741.25 672 741.25 672 461.56 671.86 461.32" class="cls-2"/>
        <polygon points="731.51 652.06 746.45 652.06 701.08 573.48 722.09 573.48 689.82 517.58 704.34 517.58 672 461.56 672 741.25 783 741.25 731.51 652.06" class="cls-3"/>
        <polygon points="1359.45 580.06 1344.51 580.06 1367 619.02 1367 558.25 1346.86 558.25 1359.45 580.06" class="cls-4"/>
        <polygon points="1367 412.86 1367 390.48 1354.08 390.48 1367 412.86" class="cls-4"/>
        <polygon points="1298.64 390.48 1285.53 390.48 1292.08 401.83 1298.64 390.48" class="cls-4"/>
        <polygon points="1266.82 445.58 1253.26 469.06 1256.34 469.06 1269.9 445.58 1266.82 445.58" class="cls-2"/>
        <polygon points="1285 389.56 1285.53 390.48 1298.64 390.48 1292.08 401.83 1317.34 445.58 1302.82 445.58 1325 484 1325 278.56 1324.86 278.31 1292.37 334.58 1309.9 334.58 1277.63 390.48 1284.19 390.48 1284.86 389.31 1285 389.56" class="cls-2"/>
        <polygon points="1325 520.39 1325 501.48 1314.08 501.48 1325 520.39" class="cls-2"/>
        <polygon points="1249.49 501.48 1216.72 558.25 1225.86 558.25 1258.64 501.48 1249.49 501.48" class="cls-2"/>
        <polygon points="1335.09 501.48 1325 501.48 1325 520.39 1346.86 558.25 1367 558.25 1367 412.86 1354.08 390.48 1367 390.48 1367 376.47 1342.82 334.58 1357.34 334.58 1325 278.56 1325 484 1335.09 501.48" class="cls-3"/>
        <polygon points="1256.34 469.06 1237.63 501.48 1249.49 501.48 1268.21 469.06 1256.34 469.06" class="cls-2"/>
        <polygon points="1285 390.48 1284.19 390.48 1252.37 445.58 1266.82 445.58 1285 414.1 1285 390.48" class="cls-2"/>
        <polygon points="1225.86 558.25 1213.26 580.06 1228.21 580.06 1176.72 669.25 1285 669.25 1285 558.25 1225.86 558.25" class="cls-2"/>
        <polygon points="1285 389.56 1284.86 389.31 1284.19 390.48 1285 390.48 1285 389.56" class="cls-2"/>
        <polygon points="1285 414.1 1266.82 445.58 1269.9 445.58 1256.34 469.06 1268.21 469.06 1249.49 501.48 1258.64 501.48 1225.86 558.25 1285 558.25 1285 414.1" class="cls-2"/>
        <polygon points="1344.51 580.06 1359.45 580.06 1346.86 558.25 1325 558.25 1285 558.25 1285 669.25 1367 669.25 1367 619.02 1344.51 580.06" class="cls-3"/>
        <polygon points="1285.53 390.48 1285 390.48 1285 414.1 1292.08 401.83 1285.53 390.48" class="cls-3"/>
        <polygon points="1285 389.56 1285 390.48 1285.53 390.48 1285 389.56" class="cls-3"/>
        <polygon points="1314.08 501.48 1325 501.48 1325 484 1302.82 445.58 1317.34 445.58 1292.08 401.83 1285 414.1 1285 558.25 1325 558.25 1325 520.39 1314.08 501.48" class="cls-3"/>
        <polygon points="1325 558.25 1346.86 558.25 1325 520.39 1325 558.25" class="cls-3"/>
        <polygon points="1335.09 501.48 1325 484 1325 501.48 1335.09 501.48" class="cls-3"/>
    </g>
</svg>
